<svg xmlns="http://www.w3.org/2000/svg" xmlns:xlink="http://www.w3.org/1999/xlink" width="50" zoomAndPan="magnify" viewBox="0 0 37.5 30.000001" height="40" preserveAspectRatio="xMidYMid meet" version="1.0"><defs><clipPath id="d4d4e4e6e1"><path d="M 6.148438 2.617188 L 31.152344 2.617188 L 31.152344 22 L 6.148438 22 Z M 6.148438 2.617188 " clip-rule="nonzero"/></clipPath><clipPath id="7d7e8d4d26"><path d="M 14 22 L 19 22 L 19 26.890625 L 14 26.890625 Z M 14 22 " clip-rule="nonzero"/></clipPath><clipPath id="1760e6cab2"><path d="M 24 22 L 29 22 L 29 26.890625 L 24 26.890625 Z M 24 22 " clip-rule="nonzero"/></clipPath></defs><g clip-path="url(#d4d4e4e6e1)"><path fill="#4a4a4a" d="M 29.089844 17.449219 C 29.683594 14.21875 30.375 11.007812 30.972656 7.78125 C 31.152344 6.808594 30.609375 5.5625 29.558594 5.40625 C 29.097656 5.277344 28.554688 5.777344 28.746094 6.253906 C 28.804688 6.65625 29.257812 6.703125 29.558594 6.804688 C 29.652344 7.066406 29.824219 7.335938 29.714844 7.625 C 29.648438 7.96875 29.578125 8.316406 29.511719 8.664062 L 14.039062 8.664062 C 13.734375 8.664062 13.484375 8.914062 13.484375 9.222656 C 13.484375 9.53125 13.734375 9.785156 14.039062 9.785156 L 29.289062 9.785156 C 28.875 11.882812 28.457031 13.984375 28.050781 16.085938 C 27.960938 16.523438 27.894531 16.976562 27.714844 17.386719 C 27.386719 17.515625 27.023438 17.449219 26.683594 17.46875 C 22.660156 17.457031 18.636719 17.464844 14.617188 17.464844 C 13.59375 13.054688 12.585938 8.644531 11.5625 4.234375 C 11.429688 3.402344 10.726562 2.636719 9.855469 2.667969 C 8.8125 2.671875 7.765625 2.621094 6.722656 2.695312 C 6.148438 2.894531 6.148438 3.753906 6.710938 3.972656 C 7.8125 4.078125 8.921875 3.945312 10.019531 4.039062 C 10.285156 4.167969 10.234375 4.539062 10.339844 4.78125 C 11.539062 10.019531 12.753906 15.257812 13.976562 20.5 C 14.132812 21.351562 14.9375 22.035156 15.8125 21.949219 C 20.109375 21.941406 24.402344 21.964844 28.699219 21.9375 C 29.519531 21.964844 29.523438 20.59375 28.703125 20.613281 C 24.847656 20.589844 20.996094 20.609375 17.140625 20.605469 C 16.5625 20.589844 15.976562 20.65625 15.402344 20.542969 C 15.148438 19.996094 15.078125 19.386719 14.925781 18.808594 C 19.066406 18.808594 23.210938 18.8125 27.351562 18.808594 C 28.15625 18.878906 28.96875 18.261719 29.089844 17.449219 Z M 29.089844 17.449219 " fill-opacity="1" fill-rule="nonzero"/></g><g clip-path="url(#7d7e8d4d26)"><path fill="#4a4a4a" d="M 16.285156 22.445312 C 15.527344 22.59375 14.898438 23.234375 14.75 24 C 14.503906 25.058594 15.25 26.210938 16.308594 26.390625 C 17.40625 26.648438 18.582031 25.792969 18.675781 24.652344 C 18.882812 23.335938 17.5625 22.117188 16.285156 22.445312 Z M 17.246094 24.785156 C 17.035156 25.136719 16.492188 25.207031 16.226562 24.878906 C 15.859375 24.550781 16.058594 23.890625 16.519531 23.773438 C 17.0625 23.5625 17.632812 24.320312 17.246094 24.785156 Z M 17.246094 24.785156 " fill-opacity="1" fill-rule="nonzero"/></g><g clip-path="url(#1760e6cab2)"><path fill="#4a4a4a" d="M 26.058594 22.441406 C 24.609375 22.664062 23.945312 24.65625 24.941406 25.734375 C 25.84375 26.886719 27.878906 26.527344 28.324219 25.121094 C 28.910156 23.71875 27.519531 22.066406 26.058594 22.441406 Z M 26.816406 24.972656 C 26.136719 25.507812 25.339844 24.285156 26.089844 23.859375 C 26.769531 23.320312 27.570312 24.546875 26.816406 24.972656 Z M 26.816406 24.972656 " fill-opacity="1" fill-rule="nonzero"/></g></svg>