<svg xmlns="http://www.w3.org/2000/svg" xmlns:xlink="http://www.w3.org/1999/xlink" width="500" zoomAndPan="magnify" viewBox="0 0 375 225" height="300" preserveAspectRatio="xMidYMid meet" version="1.0"><defs><clipPath id="81a4b3fd48"><path d="M 156 167 L 214 167 L 214 224.25 L 156 224.25 Z M 156 167 " clip-rule="nonzero"/></clipPath><clipPath id="c6d4ae6474"><path d="M 236 167 L 294 167 L 294 224.25 L 236 224.25 Z M 236 167 " clip-rule="nonzero"/></clipPath></defs><path fill="#4a4a4a" d="M 375 43.839844 L 349.070312 151.386719 C 349.070312 151.894531 349.019531 152.402344 348.917969 152.90625 C 348.816406 153.40625 348.667969 153.894531 348.46875 154.363281 C 348.273438 154.835938 348.03125 155.285156 347.746094 155.710938 C 347.464844 156.136719 347.140625 156.53125 346.777344 156.890625 C 346.414062 157.253906 346.019531 157.578125 345.59375 157.859375 C 345.167969 158.144531 344.71875 158.386719 344.246094 158.582031 C 343.773438 158.777344 343.285156 158.929688 342.785156 159.027344 C 342.28125 159.128906 341.777344 159.179688 341.261719 159.183594 L 166.558594 160.449219 C 166.046875 160.445312 165.539062 160.394531 165.035156 160.292969 C 164.535156 160.191406 164.046875 160.042969 163.574219 159.847656 C 163.101562 159.652344 162.652344 159.410156 162.226562 159.125 C 161.800781 158.839844 161.40625 158.515625 161.042969 158.15625 C 160.679688 157.792969 160.359375 157.402344 160.074219 156.976562 C 159.789062 156.550781 159.546875 156.101562 159.351562 155.628906 C 159.152344 155.15625 159.003906 154.671875 158.902344 154.167969 C 158.800781 153.667969 158.75 153.160156 158.75 152.648438 L 158.75 43.828125 C 158.746094 43.613281 158.753906 43.398438 158.773438 43.1875 L 156.414062 22.132812 L 130.589844 22.132812 C 129.878906 22.105469 129.183594 22.007812 128.492188 21.847656 C 127.804688 21.683594 127.136719 21.457031 126.488281 21.167969 C 125.84375 20.878906 125.230469 20.53125 124.652344 20.121094 C 124.074219 19.714844 123.539062 19.257812 123.046875 18.746094 C 122.558594 18.234375 122.121094 17.683594 121.734375 17.089844 C 121.351562 16.496094 121.027344 15.871094 120.761719 15.214844 C 120.496094 14.558594 120.296875 13.882812 120.164062 13.191406 C 120.027344 12.496094 119.960938 11.792969 119.960938 11.085938 C 119.960938 10.378906 120.027344 9.679688 120.164062 8.984375 C 120.296875 8.289062 120.496094 7.617188 120.761719 6.960938 C 121.027344 6.304688 121.351562 5.679688 121.734375 5.085938 C 122.121094 4.492188 122.558594 3.9375 123.046875 3.429688 C 123.539062 2.917969 124.074219 2.460938 124.652344 2.050781 C 125.230469 1.644531 125.84375 1.296875 126.488281 1.007812 C 127.136719 0.714844 127.804688 0.488281 128.492188 0.328125 C 129.183594 0.164062 129.878906 0.0703125 130.589844 0.0429688 L 176.175781 0.0429688 C 176.179688 0.0820312 176.179688 0.121094 176.175781 0.160156 L 178.640625 22.144531 L 180.203125 36.039062 L 367.191406 36.039062 C 367.703125 36.039062 368.210938 36.089844 368.714844 36.191406 C 369.214844 36.292969 369.703125 36.441406 370.175781 36.636719 C 370.648438 36.835938 371.097656 37.074219 371.523438 37.359375 C 371.949219 37.644531 372.34375 37.96875 372.707031 38.332031 C 373.070312 38.691406 373.390625 39.085938 373.675781 39.511719 C 373.960938 39.9375 374.203125 40.386719 374.398438 40.859375 C 374.597656 41.332031 374.746094 41.816406 374.847656 42.320312 C 374.949219 42.820312 375 43.328125 375 43.839844 Z M 375 43.839844 " fill-opacity="1" fill-rule="nonzero"/><g clip-path="url(#81a4b3fd48)"><path fill="#4a4a4a" d="M 213.109375 195.8125 C 213.109375 196.742188 213.066406 197.671875 212.972656 198.597656 C 212.882812 199.523438 212.746094 200.445312 212.5625 201.355469 C 212.382812 202.269531 212.15625 203.171875 211.886719 204.0625 C 211.613281 204.953125 211.300781 205.828125 210.945312 206.6875 C 210.585938 207.546875 210.191406 208.386719 209.75 209.207031 C 209.3125 210.03125 208.832031 210.828125 208.316406 211.601562 C 207.796875 212.375 207.242188 213.121094 206.652344 213.839844 C 206.058594 214.558594 205.433594 215.25 204.777344 215.90625 C 204.117188 216.566406 203.425781 217.1875 202.707031 217.78125 C 201.984375 218.371094 201.238281 218.921875 200.464844 219.441406 C 199.6875 219.957031 198.890625 220.4375 198.070312 220.875 C 197.246094 221.3125 196.40625 221.710938 195.542969 222.066406 C 194.683594 222.421875 193.804688 222.734375 192.914062 223.007812 C 192.023438 223.277344 191.121094 223.503906 190.207031 223.683594 C 189.292969 223.867188 188.371094 224 187.445312 224.09375 C 186.515625 224.183594 185.585938 224.230469 184.65625 224.230469 C 183.722656 224.230469 182.792969 224.183594 181.867188 224.09375 C 180.9375 224 180.015625 223.867188 179.101562 223.683594 C 178.1875 223.503906 177.285156 223.277344 176.394531 223.007812 C 175.503906 222.734375 174.625 222.421875 173.765625 222.066406 C 172.902344 221.710938 172.0625 221.3125 171.242188 220.875 C 170.417969 220.4375 169.621094 219.957031 168.84375 219.441406 C 168.070312 218.921875 167.324219 218.371094 166.601562 217.78125 C 165.882812 217.1875 165.191406 216.566406 164.53125 215.90625 C 163.875 215.25 163.25 214.558594 162.65625 213.839844 C 162.066406 213.121094 161.511719 212.375 160.996094 211.601562 C 160.476562 210.828125 159.996094 210.03125 159.558594 209.207031 C 159.121094 208.386719 158.722656 207.546875 158.363281 206.6875 C 158.007812 205.828125 157.695312 204.953125 157.421875 204.0625 C 157.152344 203.171875 156.925781 202.269531 156.746094 201.355469 C 156.5625 200.445312 156.425781 199.523438 156.335938 198.597656 C 156.246094 197.671875 156.199219 196.742188 156.199219 195.8125 C 156.199219 194.882812 156.246094 193.953125 156.335938 193.027344 C 156.425781 192.101562 156.5625 191.179688 156.746094 190.269531 C 156.925781 189.355469 157.152344 188.453125 157.421875 187.5625 C 157.695312 186.671875 158.007812 185.796875 158.363281 184.9375 C 158.722656 184.078125 159.121094 183.238281 159.558594 182.417969 C 159.996094 181.597656 160.476562 180.796875 160.996094 180.023438 C 161.511719 179.25 162.066406 178.503906 162.65625 177.785156 C 163.25 177.066406 163.875 176.375 164.53125 175.71875 C 165.191406 175.0625 165.882812 174.4375 166.601562 173.847656 C 167.324219 173.253906 168.070312 172.703125 168.84375 172.183594 C 169.621094 171.667969 170.417969 171.191406 171.242188 170.75 C 172.0625 170.3125 172.902344 169.914062 173.765625 169.558594 C 174.625 169.203125 175.503906 168.890625 176.394531 168.617188 C 177.285156 168.347656 178.1875 168.125 179.101562 167.941406 C 180.015625 167.761719 180.9375 167.625 181.867188 167.53125 C 182.792969 167.441406 183.722656 167.394531 184.65625 167.394531 C 185.585938 167.394531 186.515625 167.441406 187.445312 167.53125 C 188.371094 167.625 189.292969 167.761719 190.207031 167.941406 C 191.121094 168.125 192.023438 168.347656 192.914062 168.617188 C 193.804688 168.890625 194.683594 169.203125 195.542969 169.558594 C 196.40625 169.914062 197.246094 170.3125 198.070312 170.75 C 198.890625 171.191406 199.6875 171.667969 200.464844 172.183594 C 201.238281 172.703125 201.984375 173.253906 202.707031 173.847656 C 203.425781 174.4375 204.117188 175.0625 204.777344 175.71875 C 205.433594 176.375 206.058594 177.066406 206.652344 177.785156 C 207.242188 178.503906 207.796875 179.25 208.316406 180.023438 C 208.832031 180.796875 209.3125 181.597656 209.75 182.417969 C 210.191406 183.238281 210.585938 184.078125 210.945312 184.9375 C 211.300781 185.796875 211.613281 186.671875 211.886719 187.5625 C 212.15625 188.453125 212.382812 189.355469 212.5625 190.269531 C 212.746094 191.179688 212.882812 192.101562 212.972656 193.027344 C 213.066406 193.953125 213.109375 194.882812 213.109375 195.8125 Z M 213.109375 195.8125 " fill-opacity="1" fill-rule="nonzero"/></g><g clip-path="url(#c6d4ae6474)"><path fill="#4a4a4a" d="M 293.421875 195.8125 C 293.421875 196.742188 293.375 197.671875 293.285156 198.597656 C 293.195312 199.523438 293.058594 200.445312 292.875 201.355469 C 292.695312 202.269531 292.46875 203.171875 292.195312 204.0625 C 291.925781 204.953125 291.613281 205.828125 291.257812 206.6875 C 290.898438 207.546875 290.5 208.386719 290.0625 209.207031 C 289.621094 210.03125 289.144531 210.828125 288.625 211.601562 C 288.109375 212.375 287.554688 213.121094 286.964844 213.839844 C 286.371094 214.558594 285.746094 215.25 285.085938 215.90625 C 284.429688 216.566406 283.738281 217.1875 283.019531 217.78125 C 282.296875 218.371094 281.550781 218.921875 280.773438 219.441406 C 280 219.957031 279.203125 220.4375 278.378906 220.875 C 277.558594 221.3125 276.71875 221.710938 275.855469 222.066406 C 274.996094 222.421875 274.117188 222.734375 273.226562 223.007812 C 272.335938 223.277344 271.433594 223.503906 270.519531 223.683594 C 269.605469 223.867188 268.683594 224 267.753906 224.09375 C 266.828125 224.183594 265.898438 224.230469 264.964844 224.230469 C 264.035156 224.230469 263.105469 224.183594 262.175781 224.09375 C 261.25 224 260.328125 223.867188 259.414062 223.683594 C 258.5 223.503906 257.597656 223.277344 256.707031 223.007812 C 255.8125 222.734375 254.9375 222.421875 254.078125 222.066406 C 253.214844 221.710938 252.375 221.3125 251.550781 220.875 C 250.730469 220.4375 249.933594 219.957031 249.15625 219.441406 C 248.382812 218.921875 247.632812 218.371094 246.914062 217.78125 C 246.195312 217.1875 245.503906 216.566406 244.84375 215.90625 C 244.1875 215.25 243.5625 214.558594 242.96875 213.839844 C 242.378906 213.121094 241.824219 212.375 241.304688 211.601562 C 240.789062 210.828125 240.308594 210.03125 239.871094 209.207031 C 239.429688 208.386719 239.03125 207.546875 238.675781 206.6875 C 238.320312 205.828125 238.007812 204.953125 237.734375 204.0625 C 237.464844 203.171875 237.238281 202.269531 237.058594 201.355469 C 236.875 200.445312 236.738281 199.523438 236.648438 198.597656 C 236.554688 197.671875 236.511719 196.742188 236.511719 195.8125 C 236.511719 194.882812 236.554688 193.953125 236.648438 193.027344 C 236.738281 192.101562 236.875 191.179688 237.058594 190.269531 C 237.238281 189.355469 237.464844 188.453125 237.734375 187.5625 C 238.007812 186.671875 238.320312 185.796875 238.675781 184.9375 C 239.03125 184.078125 239.429688 183.238281 239.871094 182.417969 C 240.308594 181.597656 240.789062 180.796875 241.304688 180.023438 C 241.824219 179.25 242.378906 178.503906 242.96875 177.785156 C 243.5625 177.066406 244.1875 176.375 244.84375 175.71875 C 245.503906 175.0625 246.195312 174.4375 246.914062 173.847656 C 247.632812 173.253906 248.382812 172.703125 249.15625 172.183594 C 249.933594 171.667969 250.730469 171.191406 251.550781 170.75 C 252.375 170.3125 253.214844 169.914062 254.078125 169.558594 C 254.9375 169.203125 255.8125 168.890625 256.707031 168.617188 C 257.597656 168.347656 258.5 168.125 259.414062 167.941406 C 260.328125 167.761719 261.25 167.625 262.175781 167.53125 C 263.105469 167.441406 264.035156 167.394531 264.964844 167.394531 C 265.898438 167.394531 266.828125 167.441406 267.753906 167.53125 C 268.683594 167.625 269.605469 167.761719 270.519531 167.941406 C 271.433594 168.125 272.335938 168.347656 273.226562 168.617188 C 274.117188 168.890625 274.996094 169.203125 275.855469 169.558594 C 276.714844 169.914062 277.558594 170.3125 278.378906 170.75 C 279.203125 171.191406 280 171.667969 280.773438 172.183594 C 281.550781 172.703125 282.296875 173.253906 283.019531 173.847656 C 283.738281 174.4375 284.429688 175.0625 285.085938 175.71875 C 285.746094 176.375 286.371094 177.066406 286.964844 177.785156 C 287.554688 178.503906 288.109375 179.25 288.625 180.023438 C 289.144531 180.796875 289.621094 181.597656 290.0625 182.417969 C 290.5 183.238281 290.898438 184.078125 291.257812 184.9375 C 291.613281 185.796875 291.925781 186.671875 292.195312 187.5625 C 292.46875 188.453125 292.695312 189.355469 292.875 190.269531 C 293.058594 191.179688 293.195312 192.101562 293.285156 193.027344 C 293.375 193.953125 293.421875 194.882812 293.421875 195.8125 Z M 293.421875 195.8125 " fill-opacity="1" fill-rule="nonzero"/></g><path fill="#4a4a4a" d="M 74.621094 45.507812 L 139.757812 45.507812 C 140.253906 45.507812 140.746094 45.558594 141.234375 45.65625 C 141.726562 45.753906 142.199219 45.894531 142.660156 46.085938 C 143.121094 46.277344 143.558594 46.511719 143.972656 46.785156 C 144.386719 47.0625 144.769531 47.378906 145.121094 47.730469 C 145.472656 48.082031 145.789062 48.464844 146.066406 48.878906 C 146.34375 49.292969 146.574219 49.726562 146.765625 50.1875 C 146.957031 50.648438 147.101562 51.121094 147.199219 51.609375 C 147.296875 52.097656 147.34375 52.589844 147.34375 53.085938 L 147.34375 54.980469 C 147.34375 55.480469 147.296875 55.972656 147.199219 56.460938 C 147.101562 56.949219 146.957031 57.421875 146.765625 57.882812 C 146.574219 58.339844 146.34375 58.777344 146.066406 59.191406 C 145.789062 59.605469 145.472656 59.988281 145.121094 60.339844 C 144.769531 60.691406 144.386719 61.007812 143.972656 61.28125 C 143.558594 61.558594 143.121094 61.792969 142.660156 61.984375 C 142.199219 62.171875 141.726562 62.316406 141.234375 62.414062 C 140.746094 62.511719 140.253906 62.558594 139.757812 62.558594 L 74.621094 62.558594 C 74.121094 62.558594 73.628906 62.511719 73.140625 62.414062 C 72.652344 62.316406 72.175781 62.171875 71.714844 61.984375 C 71.257812 61.792969 70.820312 61.558594 70.40625 61.28125 C 69.992188 61.007812 69.605469 60.691406 69.253906 60.339844 C 68.902344 59.988281 68.589844 59.605469 68.3125 59.191406 C 68.035156 58.777344 67.800781 58.339844 67.609375 57.882812 C 67.417969 57.421875 67.273438 56.949219 67.179688 56.460938 C 67.082031 55.972656 67.03125 55.480469 67.03125 54.980469 L 67.03125 53.085938 C 67.03125 52.589844 67.082031 52.097656 67.179688 51.609375 C 67.273438 51.121094 67.417969 50.648438 67.609375 50.1875 C 67.800781 49.726562 68.035156 49.292969 68.3125 48.878906 C 68.589844 48.464844 68.902344 48.082031 69.253906 47.730469 C 69.605469 47.378906 69.992188 47.0625 70.40625 46.785156 C 70.820312 46.511719 71.257812 46.277344 71.714844 46.085938 C 72.175781 45.894531 72.652344 45.753906 73.140625 45.65625 C 73.628906 45.558594 74.121094 45.507812 74.621094 45.507812 Z M 74.621094 45.507812 " fill-opacity="1" fill-rule="nonzero"/><path fill="#4a4a4a" d="M 74.621094 151.605469 L 139.757812 151.605469 C 140.253906 151.605469 140.746094 151.652344 141.234375 151.75 C 141.726562 151.847656 142.199219 151.992188 142.660156 152.183594 C 143.121094 152.371094 143.558594 152.605469 143.972656 152.882812 C 144.386719 153.160156 144.769531 153.472656 145.121094 153.824219 C 145.472656 154.175781 145.789062 154.558594 146.066406 154.972656 C 146.34375 155.386719 146.574219 155.824219 146.765625 156.28125 C 146.957031 156.742188 147.101562 157.214844 147.199219 157.703125 C 147.296875 158.191406 147.34375 158.683594 147.34375 159.183594 L 147.34375 161.078125 C 147.34375 161.574219 147.296875 162.066406 147.199219 162.554688 C 147.101562 163.042969 146.957031 163.519531 146.765625 163.976562 C 146.574219 164.4375 146.34375 164.875 146.066406 165.289062 C 145.789062 165.703125 145.472656 166.085938 145.121094 166.4375 C 144.769531 166.789062 144.386719 167.101562 143.972656 167.378906 C 143.558594 167.65625 143.121094 167.886719 142.660156 168.078125 C 142.199219 168.269531 141.726562 168.414062 141.234375 168.511719 C 140.746094 168.605469 140.253906 168.65625 139.757812 168.65625 L 74.621094 168.65625 C 74.121094 168.65625 73.628906 168.605469 73.140625 168.511719 C 72.652344 168.414062 72.175781 168.269531 71.714844 168.078125 C 71.257812 167.886719 70.820312 167.65625 70.40625 167.378906 C 69.992188 167.101562 69.605469 166.789062 69.253906 166.4375 C 68.902344 166.085938 68.589844 165.703125 68.3125 165.289062 C 68.035156 164.875 67.800781 164.4375 67.609375 163.976562 C 67.417969 163.519531 67.273438 163.042969 67.179688 162.554688 C 67.082031 162.066406 67.03125 161.574219 67.03125 161.078125 L 67.03125 159.183594 C 67.03125 158.683594 67.082031 158.191406 67.179688 157.703125 C 67.273438 157.214844 67.417969 156.742188 67.609375 156.28125 C 67.800781 155.824219 68.035156 155.386719 68.3125 154.972656 C 68.589844 154.558594 68.902344 154.175781 69.253906 153.824219 C 69.605469 153.472656 69.992188 153.160156 70.40625 152.882812 C 70.820312 152.605469 71.257812 152.371094 71.714844 152.183594 C 72.175781 151.992188 72.652344 151.847656 73.140625 151.75 C 73.628906 151.652344 74.121094 151.605469 74.621094 151.605469 Z M 74.621094 151.605469 " fill-opacity="1" fill-rule="nonzero"/><path fill="#4a4a4a" d="M 8.535156 97.296875 L 138.808594 97.296875 C 139.367188 97.296875 139.921875 97.351562 140.472656 97.457031 C 141.023438 97.566406 141.554688 97.730469 142.074219 97.945312 C 142.59375 98.160156 143.085938 98.421875 143.550781 98.730469 C 144.015625 99.042969 144.449219 99.394531 144.84375 99.792969 C 145.238281 100.1875 145.59375 100.617188 145.90625 101.082031 C 146.21875 101.550781 146.480469 102.039062 146.695312 102.558594 C 146.910156 103.074219 147.070312 103.609375 147.179688 104.15625 C 147.289062 104.707031 147.34375 105.261719 147.34375 105.820312 C 147.34375 106.378906 147.289062 106.933594 147.179688 107.484375 C 147.070312 108.03125 146.910156 108.566406 146.695312 109.082031 C 146.480469 109.601562 146.21875 110.089844 145.90625 110.554688 C 145.59375 111.023438 145.238281 111.453125 144.84375 111.847656 C 144.449219 112.246094 144.015625 112.597656 143.550781 112.910156 C 143.085938 113.21875 142.59375 113.480469 142.074219 113.695312 C 141.554688 113.910156 141.023438 114.074219 140.472656 114.183594 C 139.921875 114.289062 139.367188 114.34375 138.808594 114.34375 L 8.535156 114.34375 C 7.976562 114.34375 7.421875 114.289062 6.871094 114.183594 C 6.320312 114.074219 5.789062 113.910156 5.269531 113.695312 C 4.753906 113.480469 4.261719 113.21875 3.792969 112.910156 C 3.328125 112.597656 2.898438 112.246094 2.5 111.847656 C 2.105469 111.453125 1.75 111.023438 1.4375 110.558594 C 1.128906 110.089844 0.863281 109.601562 0.648438 109.082031 C 0.433594 108.566406 0.273438 108.03125 0.164062 107.484375 C 0.0546875 106.933594 0 106.378906 0 105.820312 C 0 105.261719 0.0546875 104.707031 0.164062 104.15625 C 0.273438 103.609375 0.433594 103.074219 0.648438 102.558594 C 0.863281 102.039062 1.128906 101.550781 1.4375 101.082031 C 1.75 100.617188 2.105469 100.1875 2.5 99.792969 C 2.898438 99.394531 3.328125 99.042969 3.792969 98.730469 C 4.261719 98.421875 4.753906 98.160156 5.269531 97.945312 C 5.789062 97.730469 6.320312 97.566406 6.871094 97.457031 C 7.421875 97.351562 7.976562 97.296875 8.535156 97.296875 Z M 8.535156 97.296875 " fill-opacity="1" fill-rule="nonzero"/></svg>