<svg xmlns="http://www.w3.org/2000/svg" xmlns:xlink="http://www.w3.org/1999/xlink" width="500" zoomAndPan="magnify" viewBox="0 0 375 374.999991" height="500" preserveAspectRatio="xMidYMid meet" version="1.0"><path fill="#4a4a4a" d="M 273.175781 326.691406 C 281.597656 326.691406 288.429688 333.515625 288.429688 341.9375 C 288.429688 350.328125 281.597656 357.152344 273.175781 357.152344 C 264.769531 357.152344 257.945312 350.332031 257.945312 341.9375 C 257.945312 333.515625 264.75 326.691406 273.175781 326.691406 Z M 273.175781 308.582031 C 254.75 308.582031 239.824219 323.503906 239.824219 341.945312 C 239.824219 360.347656 254.75 375.273438 273.175781 375.273438 C 291.617188 375.273438 306.554688 360.347656 306.554688 341.945312 C 306.550781 323.503906 291.613281 308.582031 273.175781 308.582031 Z M 273.175781 308.582031 " fill-opacity="1" fill-rule="nonzero"/><path fill="#4a4a4a" d="M 164.332031 326.691406 C 172.753906 326.691406 179.585938 333.515625 179.585938 341.9375 C 179.585938 350.328125 172.753906 357.152344 164.332031 357.152344 C 155.925781 357.152344 149.09375 350.332031 149.09375 341.9375 C 149.09375 333.515625 155.898438 326.691406 164.332031 326.691406 Z M 164.332031 308.582031 C 145.90625 308.582031 130.980469 323.503906 130.980469 341.945312 C 130.980469 360.347656 145.90625 375.273438 164.332031 375.273438 C 182.746094 375.273438 197.699219 360.347656 197.699219 341.945312 C 197.695312 323.503906 182.769531 308.582031 164.332031 308.582031 Z M 164.332031 308.582031 " fill-opacity="1" fill-rule="nonzero"/><path fill="#4a4a4a" d="M 15.453125 0.121094 C 15.148438 0.121094 14.824219 0.121094 14.527344 0.144531 C 5.527344 0.765625 2.890625 12.746094 10.820312 17.085938 L 46.5625 37.3125 C 49.796875 39.132812 52.140625 42.144531 53.144531 45.703125 L 112.660156 258.53125 C 118.417969 279.058594 137.234375 293.386719 158.59375 293.386719 L 308.273438 293.386719 C 320.332031 293.386719 320.332031 275.300781 308.273438 275.300781 L 158.589844 275.300781 C 145.28125 275.300781 133.6875 266.503906 130.101562 253.675781 L 127.238281 243.410156 L 284.0625 243.410156 C 306.597656 243.410156 326.535156 228.640625 333.09375 207.066406 L 353.453125 140.105469 L 368.632812 90.152344 C 372.144531 78.621094 354.855469 73.335938 351.34375 84.871094 L 336.132812 134.871094 L 315.792969 201.8125 C 311.53125 215.839844 298.71875 225.324219 284.0625 225.324219 L 122.15625 225.324219 L 70.582031 40.851562 C 68.316406 32.679688 62.863281 25.746094 55.457031 21.5625 L 19.734375 1.359375 C 18.441406 0.589844 16.96875 0.167969 15.453125 0.121094 Z M 15.453125 0.121094 " fill-opacity="1" fill-rule="nonzero"/><path fill="#4a4a4a" d="M 217.464844 32.125 C 255.347656 32.125 285.855469 62.644531 285.855469 100.507812 C 285.855469 138.375 255.347656 168.871094 217.464844 168.871094 C 179.582031 168.871094 149.074219 138.375 149.074219 100.507812 C 149.074219 62.648438 179.582031 32.125 217.464844 32.125 Z M 217.464844 14.046875 C 169.804688 14.046875 131 52.878906 131 100.511719 C 131 148.171875 169.804688 186.960938 217.464844 186.960938 C 265.144531 186.960938 303.949219 148.171875 303.949219 100.511719 C 303.949219 52.878906 265.144531 14.046875 217.464844 14.046875 Z M 217.464844 14.046875 " fill-opacity="1" fill-rule="nonzero"/><path fill="#4a4a4a" d="M 188.78125 62.742188 C 180.648438 62.742188 176.640625 72.632812 182.496094 78.289062 L 204.707031 100.484375 L 182.496094 122.660156 C 178.777344 126.175781 178.703125 132.03125 182.320312 135.613281 C 185.910156 139.21875 191.773438 139.125 195.285156 135.433594 L 217.492188 113.265625 L 239.675781 135.433594 C 243.1875 139.125 249.050781 139.21875 252.640625 135.613281 C 256.230469 132.023438 256.152344 126.171875 252.460938 122.660156 L 230.28125 100.484375 L 252.460938 78.289062 C 258.414062 72.53125 254.15625 62.496094 245.910156 62.742188 C 243.539062 62.820312 241.320312 63.8125 239.675781 65.511719 L 217.492188 87.703125 L 195.285156 65.511719 C 193.566406 63.742188 191.222656 62.742188 188.78125 62.742188 Z M 188.78125 62.742188 " fill-opacity="1" fill-rule="nonzero"/></svg>