<svg xmlns="http://www.w3.org/2000/svg" xmlns:xlink="http://www.w3.org/1999/xlink" width="500" zoomAndPan="magnify" viewBox="0 0 375 374.999991" height="500" preserveAspectRatio="xMidYMid meet" version="1.0"><defs><clipPath id="f9ab4564dc"><path d="M 11.484375 125 L 261 125 L 261 375 L 11.484375 375 Z M 11.484375 125 " clip-rule="nonzero"/></clipPath></defs><path fill="#4a4a4a" d="M 344.1875 39.574219 L 344.1875 39.191406 C 338.429688 31.507812 331.519531 24.972656 323.457031 18.828125 L 323.457031 19.210938 C 316.929688 24.207031 310.402344 29.585938 304.261719 34.964844 C 301.574219 33.425781 299.269531 32.273438 296.96875 31.121094 C 293.894531 29.585938 290.824219 28.046875 287.367188 27.28125 C 286.21875 26.894531 285.066406 26.511719 283.914062 26.511719 C 283.144531 18.058594 282.378906 9.605469 281.226562 1.152344 C 277.386719 0.382812 273.546875 0.382812 269.324219 0 L 263.183594 0 C 259.34375 0.382812 255.886719 0.382812 252.433594 1.152344 C 251.28125 9.222656 250.511719 17.675781 250.128906 26.128906 C 248.59375 26.128906 247.441406 26.511719 245.90625 26.894531 C 245.523438 26.894531 245.136719 26.894531 244.753906 27.28125 C 241.683594 28.046875 238.613281 29.585938 235.539062 31.121094 C 232.851562 32.273438 230.550781 33.425781 228.246094 34.964844 C 221.71875 29.585938 215.578125 24.589844 209.050781 19.210938 L 208.667969 18.828125 C 207.132812 19.980469 205.59375 21.132812 204.445312 22.285156 C 201.757812 24.207031 199.453125 26.511719 197.53125 28.816406 C 194.078125 31.890625 191.390625 35.734375 188.320312 39.574219 L 188.703125 39.574219 C 193.695312 46.105469 199.070312 52.253906 204.445312 58.785156 C 202.90625 61.089844 201.371094 63.78125 200.21875 66.085938 C 198.683594 69.160156 197.53125 72.617188 196.765625 75.691406 C 195.996094 77.226562 195.613281 78.765625 195.613281 79.917969 C 187.167969 80.6875 178.722656 81.453125 170.660156 82.609375 C 169.890625 86.449219 169.507812 90.292969 169.507812 94.519531 C 169.507812 100.28125 169.890625 106.046875 171.042969 111.425781 C 179.105469 112.191406 187.167969 112.960938 195.613281 113.730469 C 195.613281 115.265625 195.996094 116.804688 196.765625 117.957031 C 197.53125 121.414062 198.683594 124.488281 200.21875 127.945312 C 201.757812 130.636719 202.90625 133.324219 204.828125 135.628906 C 199.453125 142.160156 194.078125 148.308594 189.085938 154.839844 C 194.847656 162.910156 201.757812 169.824219 209.820312 175.589844 L 209.820312 175.203125 C 215.960938 170.210938 222.488281 164.832031 228.628906 159.453125 L 229.015625 159.453125 C 230.933594 160.605469 233.238281 161.757812 235.15625 162.910156 C 238.613281 164.445312 242.449219 165.984375 245.90625 166.753906 C 247.441406 167.136719 248.59375 167.519531 249.746094 167.90625 C 250.511719 175.972656 251.28125 184.425781 252.433594 192.878906 C 255.886719 193.261719 259.34375 193.648438 263.183594 193.648438 L 268.941406 193.648438 C 273.164062 193.648438 277.386719 193.261719 281.609375 192.496094 C 282.378906 184.425781 283.144531 175.972656 283.914062 167.519531 C 285.066406 167.136719 286.21875 166.753906 287.367188 166.367188 C 290.824219 165.597656 293.894531 164.445312 296.96875 162.910156 C 299.65625 161.757812 302.339844 160.21875 305.027344 158.300781 C 305.027344 158.683594 305.027344 158.683594 305.414062 158.683594 C 311.554688 164.0625 318.082031 169.441406 324.609375 174.4375 C 325.761719 173.667969 326.914062 172.898438 328.449219 171.746094 C 330.75 169.824219 333.054688 167.519531 334.972656 165.214844 C 338.429688 161.757812 341.886719 157.914062 344.957031 153.6875 C 339.582031 147.15625 334.207031 140.625 328.832031 134.476562 L 328.832031 134.09375 C 329.984375 132.171875 331.136719 129.867188 332.285156 127.5625 C 333.4375 124.488281 334.972656 121.414062 335.742188 118.339844 C 335.742188 117.957031 335.742188 117.570312 336.125 117.570312 C 336.125 116.035156 336.511719 114.882812 336.894531 114.113281 C 345.339844 113.34375 353.785156 112.578125 361.847656 111.808594 C 362.617188 107.964844 362.617188 104.125 363 100.28125 L 363 93.75 C 362.617188 89.90625 362.617188 86.066406 361.847656 82.222656 C 353.785156 81.453125 345.339844 80.6875 336.894531 79.917969 C 336.511719 78.765625 336.125 77.613281 336.125 76.460938 C 334.972656 73.003906 333.824219 69.542969 332.285156 66.085938 C 331.136719 63.78125 329.601562 61.089844 328.449219 58.785156 C 333.4375 52.636719 338.8125 46.105469 344.1875 39.574219 Z M 241.683594 71.464844 C 248.59375 64.164062 257.039062 60.707031 266.636719 61.089844 C 276.621094 60.707031 284.679688 64.164062 291.976562 71.464844 C 298.886719 78.382812 302.339844 86.835938 302.339844 96.441406 C 302.339844 106.429688 298.886719 114.496094 291.976562 121.796875 C 284.679688 128.714844 276.621094 132.171875 266.636719 132.171875 C 257.039062 132.171875 248.59375 128.714844 241.683594 121.796875 C 234.773438 114.496094 231.316406 106.429688 231.316406 96.441406 C 231.316406 86.835938 234.773438 78.382812 241.683594 71.464844 Z M 241.683594 71.464844 " fill-opacity="1" fill-rule="nonzero"/><path fill="#4a4a4a" d="M 267.023438 66.085938 C 258.574219 66.085938 251.664062 69.160156 245.523438 74.921875 C 239.761719 81.070312 236.691406 87.988281 236.691406 96.441406 C 236.691406 104.890625 239.761719 111.808594 245.523438 117.957031 C 251.664062 124.101562 258.574219 127.175781 267.023438 127.175781 C 275.46875 127.175781 282.378906 124.101562 288.519531 117.957031 C 294.664062 111.808594 297.351562 104.890625 297.351562 96.441406 C 297.351562 87.988281 294.664062 81.070312 288.519531 74.921875 C 282.378906 69.160156 275.46875 66.085938 267.023438 66.085938 Z M 250.898438 80.300781 C 255.503906 76.074219 260.878906 73.769531 267.023438 73.769531 C 273.164062 73.769531 278.539062 76.074219 283.144531 80.300781 C 287.753906 84.914062 289.671875 89.90625 289.671875 96.441406 C 289.671875 102.972656 287.753906 108.351562 283.144531 112.578125 C 278.539062 117.1875 273.164062 119.492188 267.023438 119.492188 C 260.878906 119.492188 255.503906 117.1875 250.898438 112.578125 C 246.675781 108.351562 244.371094 102.972656 244.371094 96.441406 C 244.371094 90.292969 246.675781 84.914062 250.898438 80.300781 Z M 250.898438 80.300781 " fill-opacity="1" fill-rule="nonzero"/><g clip-path="url(#f9ab4564dc)"><path fill="#4a4a4a" d="M 168.355469 129.097656 C 166.820312 128.328125 165.667969 127.945312 164.515625 127.945312 C 159.910156 126.792969 155.300781 126.023438 150.695312 125.257812 C 146.472656 135.628906 143.015625 145.621094 139.5625 155.609375 L 132.652344 155.609375 C 128.042969 155.992188 123.820312 156.378906 119.597656 157.148438 C 116.144531 157.53125 112.6875 158.683594 109.234375 159.835938 C 103.089844 151 96.5625 142.160156 90.421875 133.710938 L 90.035156 133.324219 C 87.734375 134.09375 85.429688 134.863281 83.511719 136.015625 C 79.671875 137.550781 76.214844 139.472656 72.761719 141.777344 C 67.386719 144.46875 62.394531 147.925781 57.789062 152.152344 L 57.789062 152.535156 C 62.394531 162.140625 66.617188 171.746094 71.226562 181.351562 C 68.539062 184.042969 66.234375 186.347656 63.929688 189.421875 C 60.859375 192.496094 58.171875 196.335938 55.867188 200.179688 C 54.71875 201.714844 53.949219 203.253906 53.179688 205.175781 C 42.433594 203.253906 31.683594 201.332031 20.933594 199.796875 C 19.011719 204.40625 17.09375 209.015625 15.558594 214.011719 C 14.023438 221.695312 12.488281 228.996094 11.71875 236.296875 L 41.664062 247.824219 L 41.664062 253.203125 C 41.664062 257.429688 42.046875 262.039062 43.199219 266.648438 C 43.582031 270.492188 44.734375 274.335938 45.886719 278.175781 C 37.058594 284.324219 28.609375 290.472656 19.78125 297.003906 C 24.386719 308.53125 30.914062 319.289062 38.59375 329.277344 L 38.976562 329.277344 C 48.574219 324.667969 58.171875 320.441406 68.152344 315.828125 C 70.457031 318.136719 72.761719 320.054688 75.0625 322.363281 C 78.519531 325.433594 82.742188 328.125 87.351562 330.816406 C 88.5 331.582031 90.035156 332.351562 91.574219 333.503906 C 89.652344 343.878906 88.117188 354.636719 86.582031 365.394531 C 90.804688 367.316406 95.027344 368.851562 99.636719 370.003906 C 100.785156 370.390625 103.089844 371.15625 106.929688 371.925781 C 112.304688 373.464844 117.679688 374.230469 122.667969 375 C 126.894531 364.625 130.730469 354.636719 134.1875 344.261719 L 139.179688 344.261719 C 143.785156 344.261719 148.007812 343.878906 152.230469 343.109375 C 156.070312 342.339844 159.910156 341.1875 163.75 340.035156 C 163.75 340.035156 163.75 340.421875 164.132812 340.421875 C 170.273438 349.257812 176.800781 358.09375 182.945312 366.929688 C 184.863281 365.777344 186.785156 365.011719 188.320312 364.242188 C 192.160156 362.703125 195.613281 360.785156 199.070312 358.863281 C 204.828125 355.40625 210.203125 351.5625 215.191406 347.335938 C 210.96875 337.347656 206.363281 327.742188 201.757812 317.75 C 204.058594 315.445312 205.980469 313.140625 208.28125 310.835938 C 210.96875 307.378906 213.65625 303.535156 215.960938 300.078125 C 215.960938 299.691406 216.34375 299.308594 216.34375 298.925781 C 217.113281 297.769531 217.878906 296.234375 218.648438 295.082031 C 229.398438 297.003906 240.148438 298.539062 250.898438 300.460938 C 252.816406 295.851562 254.351562 291.238281 255.886719 286.246094 C 256.273438 285.09375 256.65625 283.941406 257.039062 282.402344 C 257.421875 281.25 257.421875 280.097656 258.191406 278.558594 C 258.960938 273.566406 260.109375 268.570312 260.496094 263.960938 C 250.511719 259.734375 240.148438 256.277344 230.164062 252.433594 L 230.164062 247.824219 C 230.164062 243.210938 229.78125 238.21875 228.628906 233.605469 C 228.246094 230.148438 227.09375 226.691406 226.328125 223.234375 C 235.15625 217.085938 243.988281 210.554688 252.433594 204.019531 L 252.816406 204.019531 C 248.210938 192.496094 242.066406 181.738281 233.621094 171.746094 C 223.640625 175.972656 214.042969 180.582031 204.445312 185.195312 C 201.757812 182.503906 199.070312 179.816406 196.382812 177.511719 C 192.925781 174.820312 189.472656 172.132812 185.632812 170.210938 C 184.480469 169.058594 182.945312 168.289062 181.792969 167.519531 C 183.328125 156.761719 185.246094 146.003906 186.785156 135.246094 C 182.175781 133.324219 177.1875 131.402344 172.195312 129.867188 C 171.042969 129.484375 169.507812 129.097656 168.355469 129.097656 Z M 96.949219 272.796875 C 90.421875 261.65625 88.886719 250.128906 92.339844 237.832031 C 95.410156 225.539062 102.707031 216.316406 113.839844 209.785156 C 124.589844 203.636719 136.492188 202.101562 148.390625 205.175781 C 160.675781 208.632812 170.273438 215.546875 176.417969 226.691406 C 182.945312 237.832031 184.480469 249.359375 181.023438 261.65625 C 177.953125 273.949219 170.660156 283.171875 159.910156 289.320312 C 148.390625 295.851562 136.875 297.386719 124.972656 293.929688 C 112.6875 290.855469 103.089844 283.554688 96.949219 272.796875 Z M 96.949219 272.796875 " fill-opacity="1" fill-rule="nonzero"/></g><path fill="#4a4a4a" d="M 99.25 239.753906 C 96.179688 250.128906 97.332031 260.117188 102.707031 269.339844 L 103.089844 269.339844 C 108.464844 278.945312 116.527344 284.707031 126.894531 287.78125 C 137.257812 290.472656 147.242188 289.320312 156.839844 283.941406 C 166.4375 278.175781 172.195312 270.492188 175.265625 260.117188 L 175.265625 259.734375 C 177.953125 249.359375 176.417969 239.371094 171.042969 230.148438 C 165.667969 220.542969 157.605469 214.394531 147.242188 211.707031 C 136.875 208.632812 126.507812 210.167969 117.296875 215.546875 C 107.695312 220.925781 101.9375 228.996094 99.25 239.753906 Z M 122.285156 224.386719 C 129.582031 220.160156 136.875 219.007812 144.554688 221.3125 C 152.230469 223.234375 158.375 227.84375 162.597656 235.144531 C 166.820312 242.058594 167.585938 249.742188 165.667969 257.429688 C 163.363281 265.113281 158.757812 271.261719 151.847656 275.101562 L 151.847656 275.488281 C 144.554688 279.328125 137.257812 280.480469 129.582031 278.175781 C 121.519531 276.253906 115.757812 271.644531 111.535156 264.34375 C 107.695312 257.429688 106.546875 250.128906 108.464844 242.058594 C 110.769531 234.375 115.375 228.613281 122.285156 224.386719 Z M 122.285156 224.386719 " fill-opacity="1" fill-rule="nonzero"/></svg>