<svg xmlns="http://www.w3.org/2000/svg" xmlns:xlink="http://www.w3.org/1999/xlink" width="150" zoomAndPan="magnify" viewBox="0 0 112.5 44.999999" height="60" preserveAspectRatio="xMidYMid meet" version="1.0"><defs><g/><clipPath id="8c1c23e237"><path d="M 67 17 L 70 17 L 70 28.535156 L 67 28.535156 Z M 67 17 " clip-rule="nonzero"/></clipPath><clipPath id="1f74016391"><path d="M 39 17 L 43 17 L 43 28.535156 L 39 28.535156 Z M 39 17 " clip-rule="nonzero"/></clipPath></defs><path fill="#4a4a4a" d="M 46.929688 18.757812 L 46.929688 25.433594 L 45.808594 25.433594 L 45.808594 18.578125 Z M 46.929688 18.757812 " fill-opacity="1" fill-rule="nonzero"/><path fill="#4a4a4a" d="M 68.429688 17.523438 C 69.679688 17.140625 70.679688 16.6875 71.320312 16.167969 C 75.957031 12.433594 72.09375 8.957031 68.617188 7.410156 C 65.144531 5.867188 46.992188 3.035156 39.65625 8.054688 C 39.65625 8.054688 32.578125 12.175781 38.371094 16.167969 C 39.066406 16.621094 39.808594 16.980469 40.59375 17.242188 L 41.925781 17.664062 C 43.144531 17.988281 44.382812 18.246094 45.632812 18.425781 L 46.753906 18.589844 C 51.722656 19.21875 57.738281 19.230469 62.667969 18.644531 L 63.898438 18.484375 C 65.078125 18.324219 66.171875 18.113281 67.160156 17.875 Z M 68.429688 17.523438 " fill-opacity="1" fill-rule="nonzero"/><g clip-path="url(#8c1c23e237)"><path fill="#4a4a4a" d="M 68.664062 17.671875 L 69.761719 31.523438 L 68.46875 31.523438 L 67.398438 18.054688 Z M 68.664062 17.671875 " fill-opacity="1" fill-rule="nonzero"/></g><path fill="#4a4a4a" d="M 64.074219 18.664062 L 64.074219 25.464844 L 62.839844 25.464844 L 62.839844 18.695312 Z M 64.074219 18.664062 " fill-opacity="1" fill-rule="nonzero"/><g clip-path="url(#1f74016391)"><path fill="#4a4a4a" d="M 42.132812 17.886719 L 40.957031 31.527344 L 39.878906 31.527344 L 40.808594 17.5 Z M 42.132812 17.886719 " fill-opacity="1" fill-rule="nonzero"/></g><g fill="#4a4a4a" fill-opacity="1"><g transform="translate(1.58199, 39.365386)"><g><path d="M 2.015625 -1.414062 C 2.015625 -1.078125 2.015625 -0.742188 2.003906 -0.394531 C 2.003906 -0.277344 2.039062 -0.167969 2.101562 -0.0703125 C 2.160156 0.0351562 2.269531 0.109375 2.386719 0.109375 C 2.449219 0.109375 2.507812 0.109375 2.554688 0.109375 C 2.796875 0.0976562 3.023438 0.0703125 3.265625 0.0585938 C 3.3125 0.0585938 3.347656 0.0234375 3.371094 -0.0117188 C 3.46875 -0.121094 3.492188 -0.253906 3.503906 -0.382812 C 3.515625 -0.636719 3.539062 -0.898438 3.539062 -1.152344 C 3.539062 -1.789062 3.539062 -2.410156 3.539062 -3.046875 C 3.539062 -3.300781 3.527344 -3.550781 3.527344 -3.816406 C 3.515625 -3.925781 3.527344 -4.03125 3.527344 -4.140625 C 3.527344 -4.308594 3.539062 -4.476562 3.589844 -4.632812 C 3.636719 -4.765625 3.683594 -4.90625 3.730469 -5.039062 C 3.886719 -5.410156 4.054688 -5.761719 4.234375 -6.109375 C 4.34375 -6.3125 4.453125 -6.515625 4.558594 -6.71875 C 4.714844 -7.019531 4.859375 -7.308594 5.015625 -7.609375 C 5.101562 -7.738281 5.101562 -7.859375 5.089844 -8.003906 C 5.074219 -8.089844 5.039062 -8.148438 4.980469 -8.183594 C 4.90625 -8.21875 4.835938 -8.269531 4.765625 -8.28125 C 4.570312 -8.328125 4.378906 -8.339844 4.1875 -8.316406 C 4.09375 -8.292969 3.984375 -8.28125 3.886719 -8.230469 C 3.730469 -8.148438 3.601562 -8.027344 3.527344 -7.859375 C 3.371094 -7.523438 3.203125 -7.199219 3 -6.886719 C 2.953125 -6.804688 2.890625 -6.730469 2.832031 -6.671875 C 2.722656 -6.550781 2.542969 -6.550781 2.472656 -6.683594 C 2.375 -6.839844 2.292969 -7.007812 2.207031 -7.164062 C 2.171875 -7.246094 2.136719 -7.320312 2.101562 -7.402344 C 1.992188 -7.621094 1.882812 -7.824219 1.789062 -8.039062 C 1.726562 -8.171875 1.644531 -8.242188 1.511719 -8.304688 C 1.34375 -8.375 1.164062 -8.351562 0.996094 -8.339844 C 0.851562 -8.328125 0.71875 -8.304688 0.589844 -8.28125 C 0.480469 -8.269531 0.394531 -8.230469 0.335938 -8.136719 C 0.289062 -8.050781 0.265625 -7.96875 0.253906 -7.882812 C 0.226562 -7.789062 0.238281 -7.714844 0.289062 -7.632812 C 0.433594 -7.355469 0.589844 -7.078125 0.71875 -6.804688 C 0.886719 -6.433594 1.078125 -6.058594 1.296875 -5.699219 C 1.488281 -5.363281 1.679688 -5.027344 1.882812 -4.691406 C 1.945312 -4.582031 1.980469 -4.464844 1.980469 -4.34375 C 1.96875 -4.152344 1.96875 -3.960938 1.96875 -3.769531 C 1.957031 -3.347656 1.96875 -2.914062 1.992188 -2.496094 C 2.003906 -2.136719 2.003906 -1.777344 2.015625 -1.414062 Z M 2.015625 -1.414062 "/></g></g></g><g fill="#4a4a4a" fill-opacity="1"><g transform="translate(8.63799, 39.365386)"><g><path d="M 0.480469 -3.875 C 0.492188 -3.683594 0.503906 -3.480469 0.527344 -3.277344 C 0.527344 -3.167969 0.5625 -3.046875 0.5625 -2.929688 C 0.589844 -2.496094 0.671875 -2.0625 0.828125 -1.65625 C 0.960938 -1.332031 1.140625 -1.019531 1.355469 -0.730469 C 1.535156 -0.503906 1.765625 -0.335938 1.992188 -0.167969 C 2.21875 -0.0234375 2.472656 0.0117188 2.722656 0.0585938 C 2.988281 0.109375 3.265625 0.121094 3.527344 0.109375 C 3.707031 0.0976562 3.886719 0.0859375 4.054688 0 C 4.140625 -0.0351562 4.222656 -0.0703125 4.308594 -0.109375 C 4.367188 -0.144531 4.441406 -0.179688 4.5 -0.226562 C 4.558594 -0.265625 4.621094 -0.300781 4.667969 -0.347656 C 4.871094 -0.480469 5.0625 -0.636719 5.195312 -0.839844 C 5.351562 -1.078125 5.507812 -1.320312 5.617188 -1.585938 C 5.652344 -1.679688 5.6875 -1.765625 5.734375 -1.859375 C 5.929688 -2.292969 6.035156 -2.761719 6.132812 -3.226562 C 6.191406 -3.46875 6.179688 -3.71875 6.238281 -3.960938 C 6.253906 -3.972656 6.253906 -3.984375 6.253906 -3.996094 C 6.253906 -4.273438 6.253906 -4.558594 6.238281 -4.835938 C 6.214844 -5.351562 6.097656 -5.855469 6 -6.359375 C 5.902344 -6.816406 5.722656 -7.222656 5.4375 -7.597656 C 5.304688 -7.765625 5.171875 -7.933594 4.980469 -8.0625 C 4.789062 -8.183594 4.570312 -8.28125 4.367188 -8.386719 C 4.367188 -8.386719 4.355469 -8.386719 4.355469 -8.386719 C 4.199219 -8.4375 4.042969 -8.472656 3.898438 -8.484375 C 3.660156 -8.519531 3.421875 -8.507812 3.191406 -8.496094 C 2.953125 -8.496094 2.710938 -8.449219 2.484375 -8.351562 C 2.316406 -8.28125 2.148438 -8.195312 2.003906 -8.089844 C 1.703125 -7.882812 1.441406 -7.65625 1.246094 -7.355469 C 1.09375 -7.117188 0.972656 -6.851562 0.875 -6.574219 C 0.730469 -6.15625 0.648438 -5.722656 0.601562 -5.28125 C 0.574219 -5.101562 0.574219 -4.90625 0.550781 -4.726562 C 0.515625 -4.453125 0.492188 -4.164062 0.480469 -3.875 Z M 4.582031 -4.273438 C 4.570312 -3.886719 4.558594 -3.503906 4.488281 -3.132812 C 4.429688 -2.796875 4.355469 -2.472656 4.234375 -2.148438 C 4.1875 -1.980469 4.09375 -1.847656 3.949219 -1.765625 C 3.78125 -1.667969 3.601562 -1.597656 3.40625 -1.621094 C 3.238281 -1.632812 3.070312 -1.667969 2.914062 -1.703125 C 2.652344 -1.777344 2.472656 -1.945312 2.351562 -2.183594 C 2.230469 -2.425781 2.171875 -2.675781 2.125 -2.941406 C 2.027344 -3.480469 2.015625 -4.03125 2.050781 -4.582031 C 2.0625 -4.789062 2.074219 -4.992188 2.136719 -5.195312 C 2.242188 -5.640625 2.410156 -6.070312 2.710938 -6.433594 C 2.878906 -6.625 3.097656 -6.730469 3.347656 -6.742188 C 3.601562 -6.742188 3.816406 -6.671875 4.019531 -6.515625 C 4.03125 -6.503906 4.054688 -6.480469 4.066406 -6.46875 C 4.199219 -6.289062 4.296875 -6.082031 4.355469 -5.878906 C 4.476562 -5.496094 4.546875 -5.101562 4.582031 -4.703125 C 4.597656 -4.558594 4.582031 -4.414062 4.582031 -4.273438 Z M 4.582031 -4.273438 "/></g></g></g><g fill="#4a4a4a" fill-opacity="1"><g transform="translate(16.617996, 39.365386)"><g><path d="M 1.90625 -5.351562 C 1.945312 -5.953125 1.980469 -6.539062 1.980469 -7.128906 C 1.96875 -7.320312 1.980469 -7.523438 1.992188 -7.714844 C 1.992188 -7.789062 1.980469 -7.859375 1.96875 -7.933594 C 1.945312 -8.125 1.859375 -8.207031 1.667969 -8.242188 C 1.453125 -8.292969 1.234375 -8.269531 1.019531 -8.242188 C 0.972656 -8.242188 0.925781 -8.21875 0.886719 -8.195312 C 0.828125 -8.160156 0.78125 -8.125 0.730469 -8.0625 C 0.683594 -8.015625 0.625 -7.957031 0.601562 -7.882812 C 0.5625 -7.777344 0.550781 -7.667969 0.539062 -7.558594 C 0.527344 -7.367188 0.527344 -7.175781 0.527344 -6.984375 C 0.515625 -6.550781 0.503906 -6.132812 0.503906 -5.710938 C 0.492188 -5.113281 0.480469 -4.523438 0.480469 -3.925781 C 0.480469 -3.636719 0.492188 -3.335938 0.503906 -3.035156 C 0.503906 -2.902344 0.527344 -2.761719 0.539062 -2.628906 C 0.589844 -2.160156 0.671875 -1.703125 0.875 -1.273438 C 1.054688 -0.886719 1.261719 -0.527344 1.597656 -0.253906 C 1.882812 -0.0117188 2.207031 0.15625 2.578125 0.191406 C 2.652344 0.203125 2.722656 0.214844 2.808594 0.214844 C 3 0.214844 3.203125 0.226562 3.394531 0.203125 C 3.707031 0.15625 4.007812 0.0351562 4.285156 -0.121094 C 4.476562 -0.238281 4.65625 -0.382812 4.777344 -0.5625 C 4.957031 -0.816406 5.089844 -1.078125 5.171875 -1.378906 C 5.242188 -1.621094 5.316406 -1.882812 5.363281 -2.136719 C 5.519531 -2.941406 5.566406 -3.757812 5.566406 -4.570312 C 5.578125 -5.578125 5.59375 -6.589844 5.59375 -7.597656 C 5.59375 -7.691406 5.59375 -7.777344 5.566406 -7.859375 C 5.53125 -8.015625 5.460938 -8.160156 5.292969 -8.230469 C 5.207031 -8.269531 5.113281 -8.304688 5.015625 -8.304688 C 4.871094 -8.316406 4.738281 -8.328125 4.597656 -8.292969 C 4.5 -8.257812 4.429688 -8.207031 4.367188 -8.125 C 4.261719 -7.980469 4.199219 -7.8125 4.199219 -7.632812 C 4.1875 -7.152344 4.175781 -6.683594 4.164062 -6.203125 C 4.164062 -5.785156 4.175781 -5.363281 4.1875 -4.945312 C 4.1875 -4.8125 4.1875 -4.667969 4.175781 -4.523438 C 4.152344 -4.199219 4.128906 -3.875 4.117188 -3.550781 C 4.105469 -3.480469 4.105469 -3.40625 4.09375 -3.335938 C 4.054688 -3.058594 4.019531 -2.796875 3.984375 -2.53125 C 3.949219 -2.292969 3.886719 -2.074219 3.816406 -1.847656 C 3.769531 -1.714844 3.695312 -1.585938 3.574219 -1.488281 C 3.382812 -1.320312 3.058594 -1.261719 2.820312 -1.34375 C 2.761719 -1.355469 2.710938 -1.378906 2.652344 -1.378906 C 2.53125 -1.402344 2.4375 -1.476562 2.339844 -1.546875 C 2.183594 -1.667969 2.113281 -1.847656 2.050781 -2.027344 C 1.945312 -2.363281 1.894531 -2.710938 1.882812 -3.070312 C 1.859375 -3.839844 1.859375 -4.609375 1.90625 -5.351562 Z M 1.90625 -5.351562 "/></g></g></g><g fill="#4a4a4a" fill-opacity="1"><g transform="translate(23.949995, 39.365386)"><g><path d="M 2.21875 -0.972656 C 2.21875 -1.078125 2.21875 -1.199219 2.21875 -1.308594 C 2.230469 -1.429688 2.230469 -1.546875 2.257812 -1.667969 C 2.28125 -1.800781 2.316406 -1.933594 2.375 -2.050781 C 2.410156 -2.125 2.472656 -2.171875 2.542969 -2.195312 C 2.675781 -2.242188 2.808594 -2.230469 2.929688 -2.183594 C 2.988281 -2.171875 3.023438 -2.125 3.046875 -2.074219 C 3.167969 -1.8125 3.300781 -1.558594 3.40625 -1.296875 C 3.550781 -0.984375 3.683594 -0.683594 3.851562 -0.394531 C 3.9375 -0.253906 4.007812 -0.0859375 4.175781 0 C 4.296875 0.0703125 4.429688 0.109375 4.558594 0.144531 C 4.582031 0.144531 4.621094 0.144531 4.644531 0.132812 C 4.738281 0.121094 4.847656 0.121094 4.945312 0.0976562 C 5.074219 0.0859375 5.195312 0.0703125 5.316406 0.046875 C 5.386719 0.0234375 5.472656 -0.0117188 5.519531 -0.0703125 C 5.699219 -0.238281 5.722656 -0.46875 5.675781 -0.683594 C 5.652344 -0.851562 5.566406 -1.007812 5.507812 -1.164062 C 5.425781 -1.34375 5.328125 -1.523438 5.257812 -1.703125 C 5.148438 -2.003906 5.003906 -2.28125 4.859375 -2.554688 C 4.835938 -2.628906 4.800781 -2.6875 4.789062 -2.761719 C 4.765625 -2.867188 4.777344 -2.988281 4.882812 -3.058594 C 4.90625 -3.097656 4.945312 -3.121094 4.96875 -3.15625 C 5.136719 -3.382812 5.304688 -3.625 5.398438 -3.898438 C 5.554688 -4.296875 5.640625 -4.714844 5.628906 -5.148438 C 5.628906 -5.398438 5.617188 -5.652344 5.578125 -5.902344 C 5.554688 -6.144531 5.519531 -6.371094 5.472656 -6.613281 C 5.472656 -6.671875 5.449219 -6.730469 5.425781 -6.792969 C 5.363281 -6.960938 5.292969 -7.128906 5.230469 -7.296875 C 5.148438 -7.5 5.003906 -7.667969 4.847656 -7.824219 C 4.582031 -8.089844 4.234375 -8.195312 3.875 -8.269531 C 3.851562 -8.269531 3.828125 -8.269531 3.804688 -8.269531 C 3.695312 -8.28125 3.574219 -8.28125 3.46875 -8.28125 C 3.167969 -8.292969 2.855469 -8.304688 2.554688 -8.316406 C 2.21875 -8.316406 1.894531 -8.316406 1.570312 -8.328125 C 1.429688 -8.328125 1.285156 -8.339844 1.140625 -8.328125 C 0.925781 -8.328125 0.769531 -8.21875 0.660156 -8.027344 C 0.589844 -7.882812 0.5625 -7.726562 0.550781 -7.558594 C 0.550781 -7.234375 0.539062 -6.910156 0.539062 -6.589844 C 0.527344 -6.265625 0.515625 -5.941406 0.515625 -5.617188 C 0.503906 -4.738281 0.515625 -3.863281 0.515625 -2.976562 C 0.515625 -2.160156 0.539062 -1.332031 0.480469 -0.515625 C 0.480469 -0.46875 0.492188 -0.40625 0.503906 -0.359375 C 0.539062 -0.277344 0.574219 -0.191406 0.625 -0.109375 C 0.671875 -0.0351562 0.742188 0.0351562 0.839844 0.0703125 C 0.984375 0.121094 1.128906 0.167969 1.273438 0.167969 C 1.453125 0.167969 1.644531 0.144531 1.824219 0.132812 C 1.90625 0.132812 1.980469 0.0976562 2.039062 0.046875 C 2.113281 -0.0234375 2.183594 -0.0976562 2.183594 -0.214844 C 2.183594 -0.46875 2.207031 -0.71875 2.21875 -0.972656 Z M 2.242188 -5.21875 C 2.242188 -5.605469 2.242188 -5.988281 2.230469 -6.359375 C 2.230469 -6.46875 2.269531 -6.5625 2.328125 -6.660156 C 2.363281 -6.695312 2.398438 -6.71875 2.460938 -6.71875 C 2.6875 -6.71875 2.914062 -6.730469 3.144531 -6.71875 C 3.3125 -6.707031 3.46875 -6.660156 3.625 -6.589844 C 3.695312 -6.550781 3.757812 -6.492188 3.792969 -6.421875 C 3.875 -6.214844 3.925781 -6.011719 3.925781 -5.796875 C 3.925781 -5.578125 3.925781 -5.375 3.910156 -5.160156 C 3.898438 -4.871094 3.828125 -4.609375 3.695312 -4.355469 C 3.671875 -4.296875 3.648438 -4.246094 3.625 -4.199219 C 3.574219 -4.078125 3.492188 -4.007812 3.382812 -3.960938 C 3.238281 -3.898438 3.082031 -3.863281 2.914062 -3.851562 C 2.785156 -3.839844 2.652344 -3.828125 2.519531 -3.828125 C 2.375 -3.828125 2.304688 -3.886719 2.269531 -3.996094 C 2.269531 -4.03125 2.269531 -4.054688 2.269531 -4.09375 C 2.269531 -4.464844 2.269531 -4.835938 2.269531 -5.21875 C 2.257812 -5.21875 2.257812 -5.21875 2.242188 -5.21875 Z M 2.242188 -5.21875 "/></g></g></g><g fill="#4a4a4a" fill-opacity="1"><g transform="translate(31.665994, 39.365386)"><g/></g></g><g fill="#4a4a4a" fill-opacity="1"><g transform="translate(35.229996, 39.365386)"><g><path d="M 2.425781 0.0234375 C 2.59375 0.0234375 2.761719 0.0234375 2.929688 0.0234375 C 3.109375 0.0234375 3.289062 0.0234375 3.457031 -0.0117188 C 3.550781 -0.0351562 3.648438 -0.0351562 3.730469 -0.0585938 C 3.804688 -0.0703125 3.863281 -0.0859375 3.9375 -0.109375 C 3.984375 -0.121094 4.03125 -0.15625 4.078125 -0.179688 C 4.453125 -0.335938 4.777344 -0.5625 5.0625 -0.839844 C 5.136719 -0.910156 5.195312 -1.007812 5.269531 -1.09375 C 5.472656 -1.308594 5.605469 -1.558594 5.699219 -1.835938 C 5.785156 -2.0625 5.867188 -2.292969 5.929688 -2.519531 C 6.011719 -2.914062 6.109375 -3.300781 6.132812 -3.695312 C 6.144531 -3.925781 6.15625 -4.140625 6.144531 -4.367188 C 6.144531 -4.621094 6.121094 -4.871094 6.097656 -5.125 C 6.097656 -5.207031 6.082031 -5.292969 6.070312 -5.375 C 6.046875 -5.59375 6 -5.808594 5.988281 -6.035156 C 5.964844 -6.277344 5.902344 -6.515625 5.796875 -6.742188 C 5.675781 -6.996094 5.519531 -7.222656 5.339844 -7.453125 C 5.230469 -7.621094 5.089844 -7.75 4.921875 -7.847656 C 4.703125 -7.980469 4.511719 -8.148438 4.285156 -8.28125 C 4.140625 -8.351562 3.996094 -8.410156 3.839844 -8.425781 C 3.625 -8.425781 3.40625 -8.449219 3.203125 -8.472656 C 3.132812 -8.472656 3.070312 -8.472656 3.011719 -8.472656 C 2.699219 -8.472656 2.386719 -8.460938 2.0625 -8.460938 C 1.90625 -8.460938 1.753906 -8.460938 1.597656 -8.460938 C 1.402344 -8.472656 1.210938 -8.472656 1.019531 -8.425781 C 0.886719 -8.386719 0.769531 -8.328125 0.695312 -8.183594 C 0.671875 -8.113281 0.636719 -8.027344 0.613281 -7.957031 C 0.589844 -7.824219 0.5625 -7.691406 0.550781 -7.546875 C 0.527344 -7.414062 0.527344 -7.273438 0.527344 -7.128906 C 0.527344 -6.898438 0.539062 -6.671875 0.539062 -6.445312 C 0.527344 -6.277344 0.515625 -6.109375 0.503906 -5.941406 C 0.492188 -5.171875 0.480469 -4.402344 0.503906 -3.636719 C 0.515625 -3.226562 0.515625 -2.832031 0.527344 -2.4375 C 0.527344 -2.101562 0.527344 -1.777344 0.550781 -1.453125 C 0.574219 -1.128906 0.589844 -0.804688 0.613281 -0.492188 C 0.625 -0.335938 0.695312 -0.214844 0.816406 -0.132812 C 0.925781 -0.0585938 1.019531 -0.0117188 1.152344 -0.0117188 C 1.273438 -0.0117188 1.402344 0 1.523438 0.0117188 C 1.644531 0.0117188 1.765625 0.0234375 1.882812 0.0234375 C 2.0625 0.0234375 2.242188 0.0234375 2.425781 0.0234375 Z M 4.308594 -3.886719 C 4.308594 -3.742188 4.308594 -3.613281 4.308594 -3.46875 C 4.308594 -3.382812 4.285156 -3.3125 4.261719 -3.238281 C 4.222656 -3.070312 4.175781 -2.890625 4.117188 -2.722656 C 3.960938 -2.304688 3.648438 -2.027344 3.214844 -1.921875 C 3.070312 -1.871094 2.914062 -1.859375 2.773438 -1.835938 C 2.617188 -1.824219 2.507812 -1.882812 2.460938 -2.027344 C 2.386719 -2.21875 2.351562 -2.410156 2.351562 -2.628906 C 2.351562 -2.855469 2.351562 -3.082031 2.351562 -3.324219 C 2.351562 -3.792969 2.363281 -4.273438 2.363281 -4.738281 C 2.363281 -4.980469 2.339844 -5.21875 2.339844 -5.460938 C 2.339844 -5.628906 2.339844 -5.808594 2.351562 -5.988281 C 2.351562 -6.121094 2.386719 -6.238281 2.449219 -6.347656 C 2.496094 -6.445312 2.578125 -6.503906 2.6875 -6.503906 C 2.84375 -6.515625 2.988281 -6.527344 3.132812 -6.492188 C 3.226562 -6.46875 3.324219 -6.433594 3.394531 -6.359375 C 3.445312 -6.3125 3.503906 -6.277344 3.550781 -6.238281 C 3.757812 -6.121094 3.886719 -5.941406 3.960938 -5.722656 C 4.042969 -5.460938 4.128906 -5.195312 4.1875 -4.933594 C 4.261719 -4.644531 4.308594 -4.355469 4.296875 -4.066406 C 4.285156 -4.007812 4.296875 -3.949219 4.308594 -3.886719 Z M 4.308594 -3.886719 "/></g></g></g><g fill="#4a4a4a" fill-opacity="1"><g transform="translate(42.861998, 39.365386)"><g><path d="M 2.21875 -0.972656 C 2.21875 -1.078125 2.21875 -1.199219 2.21875 -1.308594 C 2.230469 -1.429688 2.230469 -1.546875 2.257812 -1.667969 C 2.28125 -1.800781 2.316406 -1.933594 2.375 -2.050781 C 2.410156 -2.125 2.472656 -2.171875 2.542969 -2.195312 C 2.675781 -2.242188 2.808594 -2.230469 2.929688 -2.183594 C 2.988281 -2.171875 3.023438 -2.125 3.046875 -2.074219 C 3.167969 -1.8125 3.300781 -1.558594 3.40625 -1.296875 C 3.550781 -0.984375 3.683594 -0.683594 3.851562 -0.394531 C 3.9375 -0.253906 4.007812 -0.0859375 4.175781 0 C 4.296875 0.0703125 4.429688 0.109375 4.558594 0.144531 C 4.582031 0.144531 4.621094 0.144531 4.644531 0.132812 C 4.738281 0.121094 4.847656 0.121094 4.945312 0.0976562 C 5.074219 0.0859375 5.195312 0.0703125 5.316406 0.046875 C 5.386719 0.0234375 5.472656 -0.0117188 5.519531 -0.0703125 C 5.699219 -0.238281 5.722656 -0.46875 5.675781 -0.683594 C 5.652344 -0.851562 5.566406 -1.007812 5.507812 -1.164062 C 5.425781 -1.34375 5.328125 -1.523438 5.257812 -1.703125 C 5.148438 -2.003906 5.003906 -2.28125 4.859375 -2.554688 C 4.835938 -2.628906 4.800781 -2.6875 4.789062 -2.761719 C 4.765625 -2.867188 4.777344 -2.988281 4.882812 -3.058594 C 4.90625 -3.097656 4.945312 -3.121094 4.96875 -3.15625 C 5.136719 -3.382812 5.304688 -3.625 5.398438 -3.898438 C 5.554688 -4.296875 5.640625 -4.714844 5.628906 -5.148438 C 5.628906 -5.398438 5.617188 -5.652344 5.578125 -5.902344 C 5.554688 -6.144531 5.519531 -6.371094 5.472656 -6.613281 C 5.472656 -6.671875 5.449219 -6.730469 5.425781 -6.792969 C 5.363281 -6.960938 5.292969 -7.128906 5.230469 -7.296875 C 5.148438 -7.5 5.003906 -7.667969 4.847656 -7.824219 C 4.582031 -8.089844 4.234375 -8.195312 3.875 -8.269531 C 3.851562 -8.269531 3.828125 -8.269531 3.804688 -8.269531 C 3.695312 -8.28125 3.574219 -8.28125 3.46875 -8.28125 C 3.167969 -8.292969 2.855469 -8.304688 2.554688 -8.316406 C 2.21875 -8.316406 1.894531 -8.316406 1.570312 -8.328125 C 1.429688 -8.328125 1.285156 -8.339844 1.140625 -8.328125 C 0.925781 -8.328125 0.769531 -8.21875 0.660156 -8.027344 C 0.589844 -7.882812 0.5625 -7.726562 0.550781 -7.558594 C 0.550781 -7.234375 0.539062 -6.910156 0.539062 -6.589844 C 0.527344 -6.265625 0.515625 -5.941406 0.515625 -5.617188 C 0.503906 -4.738281 0.515625 -3.863281 0.515625 -2.976562 C 0.515625 -2.160156 0.539062 -1.332031 0.480469 -0.515625 C 0.480469 -0.46875 0.492188 -0.40625 0.503906 -0.359375 C 0.539062 -0.277344 0.574219 -0.191406 0.625 -0.109375 C 0.671875 -0.0351562 0.742188 0.0351562 0.839844 0.0703125 C 0.984375 0.121094 1.128906 0.167969 1.273438 0.167969 C 1.453125 0.167969 1.644531 0.144531 1.824219 0.132812 C 1.90625 0.132812 1.980469 0.0976562 2.039062 0.046875 C 2.113281 -0.0234375 2.183594 -0.0976562 2.183594 -0.214844 C 2.183594 -0.46875 2.207031 -0.71875 2.21875 -0.972656 Z M 2.242188 -5.21875 C 2.242188 -5.605469 2.242188 -5.988281 2.230469 -6.359375 C 2.230469 -6.46875 2.269531 -6.5625 2.328125 -6.660156 C 2.363281 -6.695312 2.398438 -6.71875 2.460938 -6.71875 C 2.6875 -6.71875 2.914062 -6.730469 3.144531 -6.71875 C 3.3125 -6.707031 3.46875 -6.660156 3.625 -6.589844 C 3.695312 -6.550781 3.757812 -6.492188 3.792969 -6.421875 C 3.875 -6.214844 3.925781 -6.011719 3.925781 -5.796875 C 3.925781 -5.578125 3.925781 -5.375 3.910156 -5.160156 C 3.898438 -4.871094 3.828125 -4.609375 3.695312 -4.355469 C 3.671875 -4.296875 3.648438 -4.246094 3.625 -4.199219 C 3.574219 -4.078125 3.492188 -4.007812 3.382812 -3.960938 C 3.238281 -3.898438 3.082031 -3.863281 2.914062 -3.851562 C 2.785156 -3.839844 2.652344 -3.828125 2.519531 -3.828125 C 2.375 -3.828125 2.304688 -3.886719 2.269531 -3.996094 C 2.269531 -4.03125 2.269531 -4.054688 2.269531 -4.09375 C 2.269531 -4.464844 2.269531 -4.835938 2.269531 -5.21875 C 2.257812 -5.21875 2.257812 -5.21875 2.242188 -5.21875 Z M 2.242188 -5.21875 "/></g></g></g><g fill="#4a4a4a" fill-opacity="1"><g transform="translate(50.577999, 39.365386)"><g><path d="M 0.550781 -3.9375 C 0.550781 -3.804688 0.5625 -3.574219 0.550781 -3.347656 C 0.539062 -2.722656 0.515625 -2.101562 0.492188 -1.476562 C 0.492188 -1.164062 0.480469 -0.851562 0.503906 -0.539062 C 0.515625 -0.382812 0.550781 -0.253906 0.636719 -0.109375 C 0.648438 -0.0703125 0.683594 -0.046875 0.71875 -0.0117188 C 0.816406 0.046875 0.925781 0.0976562 1.042969 0.109375 C 1.261719 0.15625 1.488281 0.15625 1.703125 0.144531 C 1.933594 0.132812 2.160156 0.109375 2.386719 0.0976562 C 2.710938 0.0859375 3.023438 0.0859375 3.347656 0.0703125 C 3.550781 0.0703125 3.757812 0.046875 3.960938 0.046875 C 4.355469 0.0351562 4.753906 0.0351562 5.148438 0.0234375 C 5.183594 0.0234375 5.242188 0.0117188 5.269531 -0.0117188 C 5.351562 -0.0859375 5.4375 -0.167969 5.449219 -0.289062 C 5.449219 -0.394531 5.449219 -0.503906 5.449219 -0.613281 C 5.4375 -0.730469 5.425781 -0.863281 5.425781 -0.996094 C 5.425781 -1.199219 5.339844 -1.355469 5.183594 -1.476562 C 5.148438 -1.5 5.101562 -1.523438 5.050781 -1.546875 C 4.921875 -1.609375 4.777344 -1.621094 4.632812 -1.621094 C 4.476562 -1.621094 4.320312 -1.609375 4.152344 -1.609375 C 3.925781 -1.597656 3.683594 -1.585938 3.457031 -1.585938 C 3.214844 -1.570312 2.976562 -1.570312 2.746094 -1.570312 C 2.675781 -1.570312 2.59375 -1.585938 2.542969 -1.644531 C 2.496094 -1.714844 2.449219 -1.800781 2.4375 -1.894531 C 2.425781 -1.992188 2.425781 -2.089844 2.425781 -2.183594 C 2.425781 -2.542969 2.425781 -2.902344 2.4375 -3.253906 C 2.4375 -3.371094 2.449219 -3.480469 2.460938 -3.589844 C 2.484375 -3.730469 2.640625 -3.863281 2.785156 -3.863281 C 3.011719 -3.863281 3.253906 -3.898438 3.492188 -3.910156 C 3.71875 -3.9375 3.949219 -3.972656 4.175781 -3.996094 C 4.261719 -3.996094 4.332031 -4.019531 4.378906 -4.09375 C 4.441406 -4.175781 4.5 -4.273438 4.535156 -4.367188 C 4.621094 -4.644531 4.582031 -4.921875 4.488281 -5.183594 C 4.476562 -5.242188 4.429688 -5.28125 4.378906 -5.304688 C 4.261719 -5.351562 4.152344 -5.375 4.03125 -5.375 C 3.695312 -5.375 3.347656 -5.375 3 -5.375 C 2.890625 -5.375 2.773438 -5.386719 2.664062 -5.425781 C 2.542969 -5.472656 2.472656 -5.542969 2.4375 -5.675781 C 2.386719 -5.914062 2.410156 -6.167969 2.507812 -6.394531 C 2.542969 -6.503906 2.640625 -6.550781 2.734375 -6.5625 C 2.890625 -6.589844 3.035156 -6.601562 3.191406 -6.601562 C 3.625 -6.613281 4.066406 -6.625 4.5 -6.636719 C 4.691406 -6.636719 4.871094 -6.648438 5.0625 -6.660156 C 5.148438 -6.671875 5.242188 -6.683594 5.292969 -6.78125 C 5.328125 -6.851562 5.363281 -6.925781 5.351562 -7.007812 C 5.339844 -7.054688 5.351562 -7.105469 5.351562 -7.164062 C 5.339844 -7.390625 5.339844 -7.621094 5.328125 -7.859375 C 5.328125 -7.945312 5.316406 -8.039062 5.292969 -8.125 C 5.21875 -8.304688 5.0625 -8.398438 4.859375 -8.398438 C 4.800781 -8.398438 4.738281 -8.410156 4.667969 -8.410156 C 4.632812 -8.425781 4.582031 -8.425781 4.535156 -8.425781 C 4.320312 -8.4375 4.09375 -8.4375 3.875 -8.449219 C 3.742188 -8.449219 3.613281 -8.460938 3.480469 -8.449219 C 3.144531 -8.449219 2.808594 -8.449219 2.484375 -8.4375 C 2.351562 -8.4375 2.21875 -8.4375 2.089844 -8.4375 C 2.015625 -8.4375 1.933594 -8.4375 1.847656 -8.4375 C 1.632812 -8.425781 1.414062 -8.398438 1.199219 -8.386719 C 0.960938 -8.363281 0.804688 -8.230469 0.730469 -7.992188 C 0.695312 -7.8125 0.671875 -7.632812 0.636719 -7.453125 C 0.625 -7.378906 0.625 -7.308594 0.613281 -7.222656 C 0.613281 -6.71875 0.613281 -6.203125 0.601562 -5.699219 C 0.589844 -5.136719 0.574219 -4.582031 0.550781 -3.9375 Z M 0.550781 -3.9375 "/></g></g></g><g fill="#4a4a4a" fill-opacity="1"><g transform="translate(57.766003, 39.365386)"><g><path d="M 4.847656 0.15625 C 4.847656 0.15625 4.871094 0.15625 4.882812 0.15625 C 5.050781 0.144531 5.207031 0.132812 5.375 0.109375 C 5.398438 0.109375 5.4375 0.109375 5.460938 0.109375 C 5.617188 0.0859375 5.773438 0.046875 5.929688 0.0234375 C 5.988281 0.0117188 6.035156 -0.0117188 6.058594 -0.0585938 C 6.121094 -0.191406 6.167969 -0.324219 6.132812 -0.480469 C 6.097656 -0.671875 6.046875 -0.863281 6 -1.066406 C 5.976562 -1.199219 5.929688 -1.34375 5.902344 -1.488281 C 5.84375 -1.738281 5.808594 -2.003906 5.746094 -2.269531 C 5.6875 -2.519531 5.617188 -2.785156 5.554688 -3.046875 C 5.398438 -3.625 5.242188 -4.210938 5.089844 -4.789062 C 4.992188 -5.148438 4.894531 -5.519531 4.777344 -5.867188 C 4.632812 -6.300781 4.5 -6.742188 4.414062 -7.199219 C 4.367188 -7.464844 4.285156 -7.703125 4.222656 -7.957031 C 4.175781 -8.148438 4.054688 -8.257812 3.886719 -8.316406 C 3.742188 -8.363281 3.613281 -8.375 3.46875 -8.351562 C 3.214844 -8.328125 2.964844 -8.269531 2.699219 -8.269531 C 2.664062 -8.269531 2.628906 -8.257812 2.605469 -8.242188 C 2.410156 -8.148438 2.304688 -7.992188 2.257812 -7.789062 C 2.183594 -7.5 2.125 -7.210938 2.050781 -6.925781 C 1.980469 -6.648438 1.894531 -6.382812 1.8125 -6.121094 C 1.691406 -5.699219 1.570312 -5.292969 1.453125 -4.871094 C 1.285156 -4.308594 1.117188 -3.730469 0.960938 -3.167969 C 0.886719 -2.902344 0.839844 -2.628906 0.792969 -2.363281 C 0.742188 -2.125 0.695312 -1.894531 0.625 -1.667969 C 0.503906 -1.296875 0.394531 -0.9375 0.289062 -0.5625 C 0.226562 -0.347656 0.277344 -0.15625 0.46875 -0.0117188 C 0.480469 0 0.492188 0.0117188 0.503906 0.0234375 C 0.5625 0.0703125 0.625 0.0976562 0.695312 0.0859375 C 0.996094 0.0703125 1.296875 0.0585938 1.609375 0.046875 C 1.65625 0.046875 1.703125 0.046875 1.753906 0.046875 C 1.90625 0.0234375 2.039062 -0.0234375 2.101562 -0.191406 C 2.148438 -0.347656 2.207031 -0.492188 2.257812 -0.636719 C 2.304688 -0.769531 2.398438 -0.851562 2.542969 -0.886719 C 2.640625 -0.910156 2.746094 -0.925781 2.84375 -0.925781 C 3.058594 -0.9375 3.277344 -0.960938 3.492188 -0.972656 C 3.625 -0.972656 3.769531 -0.984375 3.898438 -0.984375 C 4.054688 -0.996094 4.175781 -0.910156 4.222656 -0.742188 C 4.261719 -0.515625 4.34375 -0.300781 4.453125 -0.0976562 C 4.511719 0.046875 4.679688 0.15625 4.847656 0.15625 Z M 3.058594 -2.855469 C 3.023438 -2.855469 2.988281 -2.84375 2.953125 -2.855469 C 2.84375 -2.855469 2.773438 -2.914062 2.785156 -3.023438 C 2.785156 -3.132812 2.796875 -3.238281 2.820312 -3.347656 C 2.914062 -3.816406 3.011719 -4.285156 3.109375 -4.753906 C 3.121094 -4.800781 3.144531 -4.847656 3.15625 -4.882812 C 3.191406 -4.933594 3.253906 -4.933594 3.289062 -4.882812 C 3.300781 -4.871094 3.3125 -4.847656 3.324219 -4.824219 C 3.394531 -4.609375 3.46875 -4.390625 3.539062 -4.164062 C 3.636719 -3.925781 3.683594 -3.660156 3.742188 -3.394531 C 3.757812 -3.335938 3.78125 -3.265625 3.804688 -3.191406 C 3.816406 -3.121094 3.816406 -3.058594 3.78125 -2.988281 C 3.757812 -2.929688 3.707031 -2.890625 3.648438 -2.890625 C 3.539062 -2.878906 3.421875 -2.867188 3.3125 -2.867188 C 3.226562 -2.855469 3.144531 -2.855469 3.058594 -2.84375 C 3.058594 -2.84375 3.058594 -2.84375 3.058594 -2.855469 Z M 3.058594 -2.855469 "/></g></g></g><g fill="#4a4a4a" fill-opacity="1"><g transform="translate(65.542002, 39.365386)"><g><path d="M 6.660156 -3.839844 C 6.660156 -4.019531 6.671875 -4.199219 6.671875 -4.378906 C 6.671875 -4.597656 6.683594 -4.8125 6.683594 -5.027344 C 6.683594 -5.460938 6.683594 -5.890625 6.695312 -6.324219 C 6.695312 -6.839844 6.695312 -7.355469 6.625 -7.871094 C 6.613281 -7.96875 6.589844 -8.050781 6.550781 -8.136719 C 6.480469 -8.339844 6.300781 -8.4375 6.109375 -8.472656 C 5.832031 -8.519531 5.554688 -8.53125 5.28125 -8.484375 C 5.113281 -8.460938 5.003906 -8.375 4.933594 -8.242188 C 4.882812 -8.171875 4.847656 -8.101562 4.824219 -8.015625 C 4.714844 -7.75 4.609375 -7.476562 4.5 -7.199219 C 4.296875 -6.695312 4.019531 -6.226562 3.792969 -5.746094 C 3.792969 -5.734375 3.78125 -5.734375 3.78125 -5.734375 C 3.695312 -5.605469 3.5625 -5.605469 3.480469 -5.734375 C 3.480469 -5.761719 3.46875 -5.785156 3.457031 -5.796875 C 3.3125 -6.082031 3.167969 -6.359375 3.023438 -6.648438 C 2.84375 -6.972656 2.722656 -7.320312 2.59375 -7.667969 C 2.496094 -7.882812 2.398438 -8.101562 2.316406 -8.316406 C 2.292969 -8.375 2.257812 -8.410156 2.195312 -8.449219 C 2.089844 -8.484375 1.980469 -8.542969 1.859375 -8.519531 C 1.8125 -8.519531 1.777344 -8.519531 1.726562 -8.519531 C 1.488281 -8.507812 1.246094 -8.484375 1.007812 -8.472656 C 0.839844 -8.460938 0.730469 -8.375 0.660156 -8.21875 C 0.589844 -8.0625 0.5625 -7.882812 0.5625 -7.703125 C 0.550781 -7.34375 0.5625 -6.972656 0.550781 -6.601562 C 0.550781 -6.347656 0.527344 -6.097656 0.515625 -5.84375 C 0.515625 -5.242188 0.515625 -4.632812 0.527344 -4.03125 C 0.550781 -3.382812 0.539062 -2.722656 0.503906 -2.074219 C 0.480469 -1.535156 0.480469 -1.007812 0.480469 -0.46875 C 0.480469 -0.382812 0.492188 -0.289062 0.539062 -0.226562 C 0.613281 -0.132812 0.707031 -0.0351562 0.828125 0 C 0.960938 0.046875 1.09375 0.0859375 1.222656 0.0703125 C 1.285156 0.0585938 1.355469 0.0585938 1.414062 0.0703125 C 1.535156 0.0703125 1.667969 0.0976562 1.789062 0.0976562 C 1.945312 0.109375 2.101562 0.0234375 2.160156 -0.132812 C 2.207031 -0.238281 2.230469 -0.347656 2.242188 -0.46875 C 2.242188 -0.601562 2.242188 -0.730469 2.257812 -0.875 C 2.257812 -1.882812 2.269531 -2.890625 2.269531 -3.898438 C 2.269531 -3.984375 2.269531 -4.054688 2.28125 -4.128906 C 2.28125 -4.164062 2.292969 -4.199219 2.339844 -4.222656 C 2.375 -4.234375 2.410156 -4.210938 2.449219 -4.1875 C 2.53125 -4.117188 2.566406 -4.019531 2.617188 -3.925781 C 2.722656 -3.695312 2.832031 -3.457031 2.941406 -3.226562 C 3.046875 -3 3.15625 -2.785156 3.265625 -2.566406 C 3.324219 -2.449219 3.382812 -2.328125 3.46875 -2.21875 C 3.539062 -2.125 3.730469 -2.125 3.804688 -2.21875 C 3.886719 -2.328125 3.960938 -2.460938 4.019531 -2.59375 C 4.105469 -2.746094 4.175781 -2.914062 4.246094 -3.082031 C 4.390625 -3.359375 4.523438 -3.636719 4.65625 -3.910156 C 4.703125 -4.007812 4.753906 -4.105469 4.800781 -4.1875 C 4.824219 -4.234375 4.859375 -4.234375 4.90625 -4.222656 C 4.980469 -4.199219 5.003906 -4.164062 5.003906 -4.066406 C 5.003906 -3.695312 5.003906 -3.324219 5.003906 -2.953125 C 5.015625 -2.183594 5.027344 -1.414062 5.027344 -0.636719 C 5.027344 -0.445312 5.089844 -0.277344 5.160156 -0.109375 C 5.230469 0.046875 5.351562 0.0976562 5.496094 0.0976562 C 5.605469 0.0976562 5.710938 0.0859375 5.820312 0.0703125 C 5.890625 0.0703125 5.964844 0.0585938 6.046875 0.0703125 C 6.132812 0.0703125 6.214844 0.0703125 6.300781 0.046875 C 6.480469 0.0234375 6.589844 -0.0859375 6.648438 -0.253906 C 6.683594 -0.359375 6.695312 -0.480469 6.695312 -0.589844 C 6.683594 -1.199219 6.671875 -1.8125 6.660156 -2.410156 C 6.660156 -2.820312 6.660156 -3.226562 6.660156 -3.636719 C 6.660156 -3.707031 6.660156 -3.78125 6.660156 -3.839844 Z M 6.660156 -3.839844 "/></g></g></g><g fill="#4a4a4a" fill-opacity="1"><g transform="translate(74.002001, 39.365386)"><g/></g></g><g fill="#4a4a4a" fill-opacity="1"><g transform="translate(77.566005, 39.365386)"><g><path d="M 1.546875 -2.808594 C 1.546875 -2.808594 1.546875 -2.808594 1.558594 -2.808594 C 1.558594 -2.039062 1.558594 -1.273438 1.570312 -0.503906 C 1.570312 -0.40625 1.585938 -0.3125 1.609375 -0.214844 C 1.667969 -0.0117188 1.8125 0.109375 2.027344 0.144531 C 2.183594 0.179688 2.328125 0.15625 2.472656 0.132812 C 2.554688 0.121094 2.640625 0.0976562 2.710938 0.0703125 C 2.808594 0.0351562 2.878906 -0.0351562 2.902344 -0.144531 C 2.929688 -0.214844 2.953125 -0.289062 2.976562 -0.359375 C 3 -0.457031 3.023438 -0.550781 3.035156 -0.660156 C 3.058594 -0.828125 3.058594 -1.007812 3.058594 -1.1875 C 3.070312 -1.726562 3.070312 -2.269531 3.070312 -2.808594 C 3.082031 -3.058594 3.082031 -3.324219 3.097656 -3.574219 C 3.109375 -3.863281 3.132812 -4.140625 3.132812 -4.414062 C 3.15625 -5.015625 3.15625 -5.617188 3.167969 -6.226562 C 3.167969 -6.347656 3.191406 -6.480469 3.203125 -6.613281 C 3.226562 -6.71875 3.300781 -6.792969 3.394531 -6.792969 C 3.625 -6.804688 3.851562 -6.804688 4.078125 -6.816406 C 4.1875 -6.816406 4.285156 -6.839844 4.378906 -6.863281 C 4.488281 -6.886719 4.621094 -7.03125 4.621094 -7.164062 C 4.609375 -7.367188 4.632812 -7.570312 4.644531 -7.765625 C 4.65625 -7.871094 4.632812 -7.980469 4.597656 -8.089844 C 4.558594 -8.160156 4.511719 -8.21875 4.441406 -8.257812 C 4.320312 -8.316406 4.1875 -8.328125 4.054688 -8.328125 C 3.828125 -8.316406 3.601562 -8.292969 3.359375 -8.292969 C 2.902344 -8.292969 2.449219 -8.304688 1.992188 -8.304688 C 1.824219 -8.304688 1.65625 -8.328125 1.476562 -8.339844 C 1.234375 -8.339844 1.007812 -8.339844 0.769531 -8.339844 C 0.589844 -8.339844 0.480469 -8.230469 0.40625 -8.074219 C 0.289062 -7.789062 0.238281 -7.488281 0.238281 -7.1875 C 0.238281 -7.078125 0.289062 -6.972656 0.371094 -6.898438 C 0.46875 -6.804688 0.601562 -6.792969 0.71875 -6.792969 C 0.949219 -6.78125 1.1875 -6.792969 1.429688 -6.792969 C 1.523438 -6.792969 1.570312 -6.757812 1.609375 -6.660156 C 1.621094 -6.625 1.632812 -6.574219 1.632812 -6.527344 C 1.632812 -6.480469 1.632812 -6.421875 1.632812 -6.371094 C 1.632812 -6 1.644531 -5.640625 1.632812 -5.28125 C 1.621094 -4.980469 1.597656 -4.667969 1.585938 -4.367188 C 1.558594 -3.839844 1.558594 -3.324219 1.546875 -2.808594 Z M 1.546875 -2.808594 "/></g></g></g><g fill="#4a4a4a" fill-opacity="1"><g transform="translate(83.794008, 39.365386)"><g><path d="M 4.847656 0.15625 C 4.847656 0.15625 4.871094 0.15625 4.882812 0.15625 C 5.050781 0.144531 5.207031 0.132812 5.375 0.109375 C 5.398438 0.109375 5.4375 0.109375 5.460938 0.109375 C 5.617188 0.0859375 5.773438 0.046875 5.929688 0.0234375 C 5.988281 0.0117188 6.035156 -0.0117188 6.058594 -0.0585938 C 6.121094 -0.191406 6.167969 -0.324219 6.132812 -0.480469 C 6.097656 -0.671875 6.046875 -0.863281 6 -1.066406 C 5.976562 -1.199219 5.929688 -1.34375 5.902344 -1.488281 C 5.84375 -1.738281 5.808594 -2.003906 5.746094 -2.269531 C 5.6875 -2.519531 5.617188 -2.785156 5.554688 -3.046875 C 5.398438 -3.625 5.242188 -4.210938 5.089844 -4.789062 C 4.992188 -5.148438 4.894531 -5.519531 4.777344 -5.867188 C 4.632812 -6.300781 4.5 -6.742188 4.414062 -7.199219 C 4.367188 -7.464844 4.285156 -7.703125 4.222656 -7.957031 C 4.175781 -8.148438 4.054688 -8.257812 3.886719 -8.316406 C 3.742188 -8.363281 3.613281 -8.375 3.46875 -8.351562 C 3.214844 -8.328125 2.964844 -8.269531 2.699219 -8.269531 C 2.664062 -8.269531 2.628906 -8.257812 2.605469 -8.242188 C 2.410156 -8.148438 2.304688 -7.992188 2.257812 -7.789062 C 2.183594 -7.5 2.125 -7.210938 2.050781 -6.925781 C 1.980469 -6.648438 1.894531 -6.382812 1.8125 -6.121094 C 1.691406 -5.699219 1.570312 -5.292969 1.453125 -4.871094 C 1.285156 -4.308594 1.117188 -3.730469 0.960938 -3.167969 C 0.886719 -2.902344 0.839844 -2.628906 0.792969 -2.363281 C 0.742188 -2.125 0.695312 -1.894531 0.625 -1.667969 C 0.503906 -1.296875 0.394531 -0.9375 0.289062 -0.5625 C 0.226562 -0.347656 0.277344 -0.15625 0.46875 -0.0117188 C 0.480469 0 0.492188 0.0117188 0.503906 0.0234375 C 0.5625 0.0703125 0.625 0.0976562 0.695312 0.0859375 C 0.996094 0.0703125 1.296875 0.0585938 1.609375 0.046875 C 1.65625 0.046875 1.703125 0.046875 1.753906 0.046875 C 1.90625 0.0234375 2.039062 -0.0234375 2.101562 -0.191406 C 2.148438 -0.347656 2.207031 -0.492188 2.257812 -0.636719 C 2.304688 -0.769531 2.398438 -0.851562 2.542969 -0.886719 C 2.640625 -0.910156 2.746094 -0.925781 2.84375 -0.925781 C 3.058594 -0.9375 3.277344 -0.960938 3.492188 -0.972656 C 3.625 -0.972656 3.769531 -0.984375 3.898438 -0.984375 C 4.054688 -0.996094 4.175781 -0.910156 4.222656 -0.742188 C 4.261719 -0.515625 4.34375 -0.300781 4.453125 -0.0976562 C 4.511719 0.046875 4.679688 0.15625 4.847656 0.15625 Z M 3.058594 -2.855469 C 3.023438 -2.855469 2.988281 -2.84375 2.953125 -2.855469 C 2.84375 -2.855469 2.773438 -2.914062 2.785156 -3.023438 C 2.785156 -3.132812 2.796875 -3.238281 2.820312 -3.347656 C 2.914062 -3.816406 3.011719 -4.285156 3.109375 -4.753906 C 3.121094 -4.800781 3.144531 -4.847656 3.15625 -4.882812 C 3.191406 -4.933594 3.253906 -4.933594 3.289062 -4.882812 C 3.300781 -4.871094 3.3125 -4.847656 3.324219 -4.824219 C 3.394531 -4.609375 3.46875 -4.390625 3.539062 -4.164062 C 3.636719 -3.925781 3.683594 -3.660156 3.742188 -3.394531 C 3.757812 -3.335938 3.78125 -3.265625 3.804688 -3.191406 C 3.816406 -3.121094 3.816406 -3.058594 3.78125 -2.988281 C 3.757812 -2.929688 3.707031 -2.890625 3.648438 -2.890625 C 3.539062 -2.878906 3.421875 -2.867188 3.3125 -2.867188 C 3.226562 -2.855469 3.144531 -2.855469 3.058594 -2.84375 C 3.058594 -2.84375 3.058594 -2.84375 3.058594 -2.855469 Z M 3.058594 -2.855469 "/></g></g></g><g fill="#4a4a4a" fill-opacity="1"><g transform="translate(91.570007, 39.365386)"><g><path d="M 0.574219 -2.722656 C 0.574219 -2.425781 0.5625 -2.113281 0.5625 -1.8125 C 0.550781 -1.441406 0.539062 -1.078125 0.539062 -0.71875 C 0.527344 -0.46875 0.589844 -0.253906 0.792969 -0.0859375 C 0.910156 0 1.03125 0.0585938 1.175781 0.046875 C 1.488281 0.0117188 1.800781 0.0234375 2.113281 0.0585938 C 2.328125 0.0859375 2.542969 0.0976562 2.746094 0.0976562 C 2.964844 0.109375 3.167969 0.109375 3.382812 0.109375 C 3.492188 0.0976562 3.613281 0.0976562 3.730469 0.0859375 C 3.839844 0.0703125 3.960938 0.046875 4.066406 0.0351562 C 4.402344 0.0117188 4.667969 -0.132812 4.882812 -0.394531 C 5.039062 -0.589844 5.160156 -0.792969 5.257812 -1.019531 C 5.292969 -1.105469 5.316406 -1.1875 5.339844 -1.273438 C 5.363281 -1.453125 5.386719 -1.632812 5.410156 -1.8125 C 5.425781 -2.015625 5.449219 -2.207031 5.460938 -2.398438 C 5.472656 -2.664062 5.460938 -2.929688 5.410156 -3.191406 C 5.386719 -3.335938 5.328125 -3.46875 5.292969 -3.613281 C 5.230469 -3.792969 5.148438 -3.949219 5.015625 -4.09375 C 4.96875 -4.140625 4.933594 -4.199219 4.882812 -4.261719 C 4.871094 -4.273438 4.859375 -4.296875 4.847656 -4.308594 C 4.835938 -4.429688 4.847656 -4.523438 4.933594 -4.621094 C 5.027344 -4.703125 5.101562 -4.800781 5.160156 -4.894531 C 5.292969 -5.113281 5.339844 -5.351562 5.375 -5.605469 C 5.398438 -5.761719 5.398438 -5.941406 5.398438 -6.097656 C 5.410156 -6.289062 5.398438 -6.457031 5.375 -6.648438 C 5.316406 -7.007812 5.195312 -7.355469 5.003906 -7.667969 C 4.921875 -7.824219 4.8125 -7.957031 4.703125 -8.101562 C 4.609375 -8.207031 4.5 -8.28125 4.378906 -8.339844 C 4.152344 -8.472656 3.898438 -8.496094 3.660156 -8.519531 C 3.421875 -8.542969 3.191406 -8.542969 2.953125 -8.542969 C 2.652344 -8.542969 2.339844 -8.53125 2.039062 -8.484375 C 2.003906 -8.484375 1.980469 -8.484375 1.957031 -8.484375 C 1.753906 -8.496094 1.558594 -8.496094 1.367188 -8.507812 C 1.296875 -8.507812 1.210938 -8.507812 1.140625 -8.507812 C 0.875 -8.496094 0.707031 -8.351562 0.625 -8.113281 C 0.574219 -7.992188 0.550781 -7.859375 0.527344 -7.738281 C 0.480469 -7.511719 0.480469 -7.285156 0.503906 -7.054688 C 0.515625 -6.925781 0.515625 -6.792969 0.515625 -6.660156 C 0.480469 -6.191406 0.492188 -5.734375 0.503906 -5.269531 C 0.515625 -4.945312 0.539062 -4.621094 0.550781 -4.296875 C 0.5625 -3.769531 0.5625 -3.253906 0.574219 -2.722656 Z M 2.386719 -2.59375 C 2.386719 -2.734375 2.386719 -2.890625 2.386719 -3.046875 C 2.375 -3.179688 2.410156 -3.3125 2.460938 -3.445312 C 2.484375 -3.492188 2.519531 -3.515625 2.566406 -3.527344 C 2.808594 -3.574219 3.046875 -3.574219 3.289062 -3.550781 C 3.515625 -3.515625 3.683594 -3.40625 3.78125 -3.203125 C 3.9375 -2.902344 3.996094 -2.578125 3.972656 -2.242188 C 3.949219 -2.039062 3.839844 -1.871094 3.660156 -1.753906 C 3.335938 -1.546875 2.976562 -1.5 2.605469 -1.5 C 2.554688 -1.5 2.507812 -1.523438 2.496094 -1.558594 C 2.472656 -1.609375 2.449219 -1.667969 2.4375 -1.714844 C 2.425781 -2.003906 2.410156 -2.292969 2.386719 -2.59375 Z M 2.28125 -5.953125 C 2.28125 -6.097656 2.292969 -6.253906 2.28125 -6.394531 C 2.28125 -6.613281 2.425781 -6.707031 2.566406 -6.71875 C 2.722656 -6.742188 2.878906 -6.769531 3.035156 -6.742188 C 3.265625 -6.71875 3.457031 -6.648438 3.550781 -6.433594 C 3.683594 -6.167969 3.757812 -5.890625 3.757812 -5.605469 C 3.757812 -5.542969 3.742188 -5.496094 3.707031 -5.449219 C 3.613281 -5.328125 3.492188 -5.242188 3.335938 -5.21875 C 3.15625 -5.207031 2.964844 -5.195312 2.773438 -5.183594 C 2.734375 -5.183594 2.6875 -5.183594 2.652344 -5.171875 C 2.460938 -5.148438 2.304688 -5.269531 2.304688 -5.460938 C 2.292969 -5.628906 2.304688 -5.785156 2.304688 -5.953125 C 2.292969 -5.953125 2.292969 -5.953125 2.28125 -5.953125 Z M 2.28125 -5.953125 "/></g></g></g><g fill="#4a4a4a" fill-opacity="1"><g transform="translate(98.770004, 39.365386)"><g><path d="M 0.515625 -3.828125 C 0.515625 -3.730469 0.515625 -3.648438 0.515625 -3.5625 C 0.515625 -2.566406 0.515625 -1.585938 0.515625 -0.601562 C 0.515625 -0.46875 0.539062 -0.335938 0.589844 -0.214844 C 0.625 -0.121094 0.683594 -0.0351562 0.792969 0 C 0.886719 0.0351562 0.984375 0.0585938 1.09375 0.0585938 C 1.296875 0.046875 1.488281 0.0351562 1.691406 0.0351562 C 1.824219 0.0234375 1.945312 0.0234375 2.074219 0.0234375 C 2.304688 0.0234375 2.542969 0.046875 2.773438 0.0585938 C 3.203125 0.0585938 3.636719 0.0703125 4.054688 0.0234375 C 4.117188 0.0234375 4.164062 0.0117188 4.199219 -0.0234375 C 4.273438 -0.0859375 4.308594 -0.15625 4.34375 -0.238281 C 4.441406 -0.492188 4.441406 -0.742188 4.414062 -0.996094 C 4.414062 -1.066406 4.390625 -1.128906 4.355469 -1.1875 C 4.273438 -1.378906 4.128906 -1.511719 3.910156 -1.523438 C 3.804688 -1.523438 3.695312 -1.546875 3.589844 -1.546875 C 3.226562 -1.585938 2.855469 -1.597656 2.484375 -1.621094 C 2.410156 -1.632812 2.351562 -1.632812 2.292969 -1.644531 C 2.242188 -1.644531 2.207031 -1.679688 2.195312 -1.726562 C 2.160156 -1.847656 2.136719 -1.980469 2.136719 -2.113281 C 2.136719 -2.734375 2.125 -3.371094 2.125 -4.007812 C 2.113281 -4.175781 2.113281 -4.355469 2.113281 -4.523438 C 2.101562 -4.847656 2.089844 -5.171875 2.089844 -5.496094 C 2.089844 -5.855469 2.089844 -6.214844 2.074219 -6.589844 C 2.074219 -6.960938 2.050781 -7.34375 2.039062 -7.726562 C 2.039062 -7.847656 2.027344 -7.957031 2.027344 -8.074219 C 2.027344 -8.136719 1.992188 -8.183594 1.957031 -8.21875 C 1.882812 -8.304688 1.789062 -8.339844 1.679688 -8.363281 C 1.402344 -8.425781 1.140625 -8.398438 0.863281 -8.339844 C 0.757812 -8.316406 0.683594 -8.242188 0.648438 -8.148438 C 0.625 -8.074219 0.601562 -8.003906 0.589844 -7.933594 C 0.5625 -7.679688 0.527344 -7.441406 0.503906 -7.1875 C 0.492188 -7.019531 0.480469 -6.851562 0.480469 -6.695312 C 0.492188 -6.382812 0.503906 -6.070312 0.515625 -5.761719 C 0.515625 -5.113281 0.515625 -4.464844 0.515625 -3.828125 Z M 0.515625 -3.828125 "/></g></g></g><g fill="#4a4a4a" fill-opacity="1"><g transform="translate(104.902, 39.365386)"><g><path d="M 0.550781 -3.9375 C 0.550781 -3.804688 0.5625 -3.574219 0.550781 -3.347656 C 0.539062 -2.722656 0.515625 -2.101562 0.492188 -1.476562 C 0.492188 -1.164062 0.480469 -0.851562 0.503906 -0.539062 C 0.515625 -0.382812 0.550781 -0.253906 0.636719 -0.109375 C 0.648438 -0.0703125 0.683594 -0.046875 0.71875 -0.0117188 C 0.816406 0.046875 0.925781 0.0976562 1.042969 0.109375 C 1.261719 0.15625 1.488281 0.15625 1.703125 0.144531 C 1.933594 0.132812 2.160156 0.109375 2.386719 0.0976562 C 2.710938 0.0859375 3.023438 0.0859375 3.347656 0.0703125 C 3.550781 0.0703125 3.757812 0.046875 3.960938 0.046875 C 4.355469 0.0351562 4.753906 0.0351562 5.148438 0.0234375 C 5.183594 0.0234375 5.242188 0.0117188 5.269531 -0.0117188 C 5.351562 -0.0859375 5.4375 -0.167969 5.449219 -0.289062 C 5.449219 -0.394531 5.449219 -0.503906 5.449219 -0.613281 C 5.4375 -0.730469 5.425781 -0.863281 5.425781 -0.996094 C 5.425781 -1.199219 5.339844 -1.355469 5.183594 -1.476562 C 5.148438 -1.5 5.101562 -1.523438 5.050781 -1.546875 C 4.921875 -1.609375 4.777344 -1.621094 4.632812 -1.621094 C 4.476562 -1.621094 4.320312 -1.609375 4.152344 -1.609375 C 3.925781 -1.597656 3.683594 -1.585938 3.457031 -1.585938 C 3.214844 -1.570312 2.976562 -1.570312 2.746094 -1.570312 C 2.675781 -1.570312 2.59375 -1.585938 2.542969 -1.644531 C 2.496094 -1.714844 2.449219 -1.800781 2.4375 -1.894531 C 2.425781 -1.992188 2.425781 -2.089844 2.425781 -2.183594 C 2.425781 -2.542969 2.425781 -2.902344 2.4375 -3.253906 C 2.4375 -3.371094 2.449219 -3.480469 2.460938 -3.589844 C 2.484375 -3.730469 2.640625 -3.863281 2.785156 -3.863281 C 3.011719 -3.863281 3.253906 -3.898438 3.492188 -3.910156 C 3.71875 -3.9375 3.949219 -3.972656 4.175781 -3.996094 C 4.261719 -3.996094 4.332031 -4.019531 4.378906 -4.09375 C 4.441406 -4.175781 4.5 -4.273438 4.535156 -4.367188 C 4.621094 -4.644531 4.582031 -4.921875 4.488281 -5.183594 C 4.476562 -5.242188 4.429688 -5.28125 4.378906 -5.304688 C 4.261719 -5.351562 4.152344 -5.375 4.03125 -5.375 C 3.695312 -5.375 3.347656 -5.375 3 -5.375 C 2.890625 -5.375 2.773438 -5.386719 2.664062 -5.425781 C 2.542969 -5.472656 2.472656 -5.542969 2.4375 -5.675781 C 2.386719 -5.914062 2.410156 -6.167969 2.507812 -6.394531 C 2.542969 -6.503906 2.640625 -6.550781 2.734375 -6.5625 C 2.890625 -6.589844 3.035156 -6.601562 3.191406 -6.601562 C 3.625 -6.613281 4.066406 -6.625 4.5 -6.636719 C 4.691406 -6.636719 4.871094 -6.648438 5.0625 -6.660156 C 5.148438 -6.671875 5.242188 -6.683594 5.292969 -6.78125 C 5.328125 -6.851562 5.363281 -6.925781 5.351562 -7.007812 C 5.339844 -7.054688 5.351562 -7.105469 5.351562 -7.164062 C 5.339844 -7.390625 5.339844 -7.621094 5.328125 -7.859375 C 5.328125 -7.945312 5.316406 -8.039062 5.292969 -8.125 C 5.21875 -8.304688 5.0625 -8.398438 4.859375 -8.398438 C 4.800781 -8.398438 4.738281 -8.410156 4.667969 -8.410156 C 4.632812 -8.425781 4.582031 -8.425781 4.535156 -8.425781 C 4.320312 -8.4375 4.09375 -8.4375 3.875 -8.449219 C 3.742188 -8.449219 3.613281 -8.460938 3.480469 -8.449219 C 3.144531 -8.449219 2.808594 -8.449219 2.484375 -8.4375 C 2.351562 -8.4375 2.21875 -8.4375 2.089844 -8.4375 C 2.015625 -8.4375 1.933594 -8.4375 1.847656 -8.4375 C 1.632812 -8.425781 1.414062 -8.398438 1.199219 -8.386719 C 0.960938 -8.363281 0.804688 -8.230469 0.730469 -7.992188 C 0.695312 -7.8125 0.671875 -7.632812 0.636719 -7.453125 C 0.625 -7.378906 0.625 -7.308594 0.613281 -7.222656 C 0.613281 -6.71875 0.613281 -6.203125 0.601562 -5.699219 C 0.589844 -5.136719 0.574219 -4.582031 0.550781 -3.9375 Z M 0.550781 -3.9375 "/></g></g></g></svg>