<svg xmlns="http://www.w3.org/2000/svg" xmlns:xlink="http://www.w3.org/1999/xlink" width="230" zoomAndPan="magnify" viewBox="0 0 172.5 37.5" height="50" preserveAspectRatio="xMidYMid meet" version="1.0"><defs><g/></defs><g fill="#4a4a4a" fill-opacity="1"><g transform="translate(2.778143, 24.123997)"><g><path d="M 6.171875 0 L 3.734375 0 L 3.734375 -4.875 L 0 -12.0625 L 2.71875 -12.0625 L 4.9375 -7.265625 L 7.15625 -12.0625 L 9.875 -12.0625 L 6.171875 -4.875 Z M 6.171875 0 "/></g></g></g><g fill="#4a4a4a" fill-opacity="1"><g transform="translate(13.194635, 24.123997)"><g><path d="M 3.8125 -2.84375 C 4.164062 -2.226562 4.820312 -1.921875 5.78125 -1.921875 C 6.738281 -1.921875 7.390625 -2.226562 7.734375 -2.84375 C 8.085938 -3.46875 8.265625 -4.507812 8.265625 -5.96875 C 8.265625 -7.4375 8.085938 -8.5 7.734375 -9.15625 C 7.378906 -9.820312 6.726562 -10.15625 5.78125 -10.15625 C 4.832031 -10.15625 4.179688 -9.820312 3.828125 -9.15625 C 3.472656 -8.5 3.296875 -7.4375 3.296875 -5.96875 C 3.296875 -4.507812 3.46875 -3.46875 3.8125 -2.84375 Z M 9.65625 -1.28125 C 8.90625 -0.28125 7.613281 0.21875 5.78125 0.21875 C 3.945312 0.21875 2.65625 -0.28125 1.90625 -1.28125 C 1.15625 -2.28125 0.78125 -3.84375 0.78125 -5.96875 C 0.78125 -8.101562 1.15625 -9.6875 1.90625 -10.71875 C 2.65625 -11.757812 3.945312 -12.28125 5.78125 -12.28125 C 7.613281 -12.28125 8.90625 -11.757812 9.65625 -10.71875 C 10.414062 -9.6875 10.796875 -8.101562 10.796875 -5.96875 C 10.796875 -3.84375 10.414062 -2.28125 9.65625 -1.28125 Z M 9.65625 -1.28125 "/></g></g></g><g fill="#4a4a4a" fill-opacity="1"><g transform="translate(25.296915, 24.123997)"><g><path d="M 3.65625 -4.03125 C 3.65625 -2.625 4.367188 -1.921875 5.796875 -1.921875 C 7.234375 -1.921875 7.953125 -2.625 7.953125 -4.03125 L 7.953125 -12.0625 L 10.40625 -12.0625 L 10.40625 -4.078125 C 10.40625 -2.597656 10.019531 -1.507812 9.25 -0.8125 C 8.488281 -0.125 7.335938 0.21875 5.796875 0.21875 C 4.265625 0.21875 3.113281 -0.125 2.34375 -0.8125 C 1.582031 -1.507812 1.203125 -2.597656 1.203125 -4.078125 L 1.203125 -12.0625 L 3.65625 -12.0625 Z M 3.65625 -4.03125 "/></g></g></g><g fill="#4a4a4a" fill-opacity="1"><g transform="translate(37.43468, 24.123997)"><g><path d="M 3.765625 -4.046875 L 3.765625 0 L 1.3125 0 L 1.3125 -12.0625 L 6 -12.0625 C 8.84375 -12.0625 10.265625 -10.738281 10.265625 -8.09375 C 10.265625 -6.519531 9.671875 -5.359375 8.484375 -4.609375 L 10.203125 0 L 7.53125 0 L 6.125 -4.046875 Z M 6.03125 -6.140625 C 6.613281 -6.140625 7.046875 -6.316406 7.328125 -6.671875 C 7.609375 -7.023438 7.75 -7.492188 7.75 -8.078125 C 7.75 -8.660156 7.597656 -9.117188 7.296875 -9.453125 C 6.992188 -9.796875 6.5625 -9.96875 6 -9.96875 L 3.765625 -9.96875 L 3.765625 -6.140625 Z M 6.03125 -6.140625 "/></g></g></g><g fill="#4a4a4a" fill-opacity="1"><g transform="translate(48.969119, 24.123997)"><g/></g></g><g fill="#4a4a4a" fill-opacity="1"><g transform="translate(53.405536, 24.123997)"><g><path d="M 5.375 0 L 1.3125 0 L 1.3125 -12.0625 L 5.375 -12.0625 C 6.414062 -12.0625 7.273438 -11.953125 7.953125 -11.734375 C 8.628906 -11.515625 9.148438 -11.15625 9.515625 -10.65625 C 9.890625 -10.15625 10.148438 -9.5625 10.296875 -8.875 C 10.441406 -8.195312 10.515625 -7.3125 10.515625 -6.21875 C 10.515625 -5.132812 10.445312 -4.234375 10.3125 -3.515625 C 10.1875 -2.804688 9.941406 -2.171875 9.578125 -1.609375 C 9.210938 -1.046875 8.6875 -0.632812 8 -0.375 C 7.3125 -0.125 6.4375 0 5.375 0 Z M 7.953125 -4.796875 C 7.972656 -5.171875 7.984375 -5.691406 7.984375 -6.359375 C 7.984375 -7.023438 7.957031 -7.5625 7.90625 -7.96875 C 7.863281 -8.375 7.753906 -8.738281 7.578125 -9.0625 C 7.398438 -9.394531 7.132812 -9.625 6.78125 -9.75 C 6.4375 -9.875 5.96875 -9.9375 5.375 -9.9375 L 3.765625 -9.9375 L 3.765625 -2.125 L 5.375 -2.125 C 6.257812 -2.125 6.90625 -2.347656 7.3125 -2.796875 C 7.65625 -3.171875 7.867188 -3.835938 7.953125 -4.796875 Z M 7.953125 -4.796875 "/></g></g></g><g fill="#4a4a4a" fill-opacity="1"><g transform="translate(65.259386, 24.123997)"><g><path d="M 3.765625 -4.046875 L 3.765625 0 L 1.3125 0 L 1.3125 -12.0625 L 6 -12.0625 C 8.84375 -12.0625 10.265625 -10.738281 10.265625 -8.09375 C 10.265625 -6.519531 9.671875 -5.359375 8.484375 -4.609375 L 10.203125 0 L 7.53125 0 L 6.125 -4.046875 Z M 6.03125 -6.140625 C 6.613281 -6.140625 7.046875 -6.316406 7.328125 -6.671875 C 7.609375 -7.023438 7.75 -7.492188 7.75 -8.078125 C 7.75 -8.660156 7.597656 -9.117188 7.296875 -9.453125 C 6.992188 -9.796875 6.5625 -9.96875 6 -9.96875 L 3.765625 -9.96875 L 3.765625 -6.140625 Z M 6.03125 -6.140625 "/></g></g></g><g fill="#4a4a4a" fill-opacity="1"><g transform="translate(76.793825, 24.123997)"><g><path d="M 1.3125 0 L 1.3125 -12.0625 L 9.125 -12.0625 L 9.125 -9.9375 L 3.765625 -9.9375 L 3.765625 -7.125 L 8.0625 -7.125 L 8.0625 -5.015625 L 3.765625 -5.015625 L 3.765625 -2.125 L 9.125 -2.125 L 9.125 0 Z M 1.3125 0 "/></g></g></g><g fill="#4a4a4a" fill-opacity="1"><g transform="translate(87.157084, 24.123997)"><g><path d="M 0.296875 0 L 3.015625 -12.0625 L 7.671875 -12.0625 L 10.390625 0 L 7.9375 0 L 7.453125 -2.1875 L 3.234375 -2.1875 L 2.75 0 Z M 4.921875 -10.046875 L 3.6875 -4.3125 L 7 -4.3125 L 5.765625 -10.046875 Z M 4.921875 -10.046875 "/></g></g></g><g fill="#4a4a4a" fill-opacity="1"><g transform="translate(98.372106, 24.123997)"><g><path d="M 1.3125 0 L 1.3125 -12.0625 L 5.484375 -12.0625 L 7.609375 -3.265625 L 9.75 -12.0625 L 13.921875 -12.0625 L 13.921875 0 L 11.46875 0 L 11.46875 -9.34375 L 11.203125 -9.34375 L 8.84375 -0.53125 L 6.390625 -0.53125 L 4.03125 -9.34375 L 3.765625 -9.34375 L 3.765625 0 Z M 1.3125 0 "/></g></g></g><g fill="#4a4a4a" fill-opacity="1"><g transform="translate(114.129858, 24.123997)"><g/></g></g><g fill="#4a4a4a" fill-opacity="1"><g transform="translate(118.566269, 24.123997)"><g><path d="M 0.234375 -9.90625 L 0.234375 -12.0625 L 9.109375 -12.0625 L 9.109375 -9.90625 L 5.90625 -9.90625 L 5.90625 0 L 3.46875 0 L 3.46875 -9.90625 Z M 0.234375 -9.90625 "/></g></g></g><g fill="#4a4a4a" fill-opacity="1"><g transform="translate(128.432664, 24.123997)"><g><path d="M 0.296875 0 L 3.015625 -12.0625 L 7.671875 -12.0625 L 10.390625 0 L 7.9375 0 L 7.453125 -2.1875 L 3.234375 -2.1875 L 2.75 0 Z M 4.921875 -10.046875 L 3.6875 -4.3125 L 7 -4.3125 L 5.765625 -10.046875 Z M 4.921875 -10.046875 "/></g></g></g><g fill="#4a4a4a" fill-opacity="1"><g transform="translate(139.647685, 24.123997)"><g><path d="M 1.3125 -12.0625 L 6.046875 -12.0625 C 7.304688 -12.0625 8.25 -11.8125 8.875 -11.3125 C 9.5 -10.8125 9.8125 -10 9.8125 -8.875 C 9.8125 -8.195312 9.710938 -7.660156 9.515625 -7.265625 C 9.316406 -6.867188 8.972656 -6.519531 8.484375 -6.21875 C 9.015625 -5.988281 9.40625 -5.660156 9.65625 -5.234375 C 9.914062 -4.804688 10.046875 -4.21875 10.046875 -3.46875 C 10.046875 -2.289062 9.703125 -1.414062 9.015625 -0.84375 C 8.328125 -0.28125 7.363281 0 6.125 0 L 1.3125 0 Z M 6 -5.046875 L 3.765625 -5.046875 L 3.765625 -2.09375 L 6 -2.09375 C 6.53125 -2.09375 6.921875 -2.195312 7.171875 -2.40625 C 7.429688 -2.625 7.5625 -3.015625 7.5625 -3.578125 C 7.5625 -4.554688 7.039062 -5.046875 6 -5.046875 Z M 5.921875 -9.96875 L 3.765625 -9.96875 L 3.765625 -7.09375 L 5.953125 -7.09375 C 6.867188 -7.09375 7.328125 -7.570312 7.328125 -8.53125 C 7.328125 -9.488281 6.859375 -9.96875 5.921875 -9.96875 Z M 5.921875 -9.96875 "/></g></g></g><g fill="#4a4a4a" fill-opacity="1"><g transform="translate(150.986922, 24.123997)"><g><path d="M 8.1875 0 L 1.3125 0 L 1.3125 -12.0625 L 3.765625 -12.0625 L 3.765625 -2.171875 L 8.1875 -2.171875 Z M 8.1875 0 "/></g></g></g><g fill="#4a4a4a" fill-opacity="1"><g transform="translate(159.895082, 24.123997)"><g><path d="M 1.3125 0 L 1.3125 -12.0625 L 9.125 -12.0625 L 9.125 -9.9375 L 3.765625 -9.9375 L 3.765625 -7.125 L 8.0625 -7.125 L 8.0625 -5.015625 L 3.765625 -5.015625 L 3.765625 -2.125 L 9.125 -2.125 L 9.125 0 Z M 1.3125 0 "/></g></g></g></svg>