<svg xmlns="http://www.w3.org/2000/svg" xmlns:xlink="http://www.w3.org/1999/xlink" width="50" zoomAndPan="magnify" viewBox="0 0 37.5 30.000001" height="40" preserveAspectRatio="xMidYMid meet" version="1.0"><defs><clipPath id="87dfe0afca"><path d="M 9.503906 2.78125 L 27.890625 2.78125 L 27.890625 26.316406 L 9.503906 26.316406 Z M 9.503906 2.78125 " clip-rule="nonzero"/></clipPath></defs><g clip-path="url(#87dfe0afca)"><path fill="#4a4a4a" d="M 27.890625 24.535156 C 27.890625 18.257812 23.773438 13.167969 18.699219 13.167969 C 13.625 13.167969 9.503906 18.257812 9.503906 24.535156 C 9.503906 25.515625 13.625 26.3125 18.699219 26.3125 C 23.773438 26.3125 27.890625 25.515625 27.890625 24.535156 Z M 18.699219 2.78125 C 21.464844 2.78125 23.707031 5.007812 23.707031 7.753906 C 23.707031 10.5 21.464844 12.722656 18.699219 12.722656 C 15.929688 12.722656 13.6875 10.5 13.6875 7.753906 C 13.6875 5.007812 15.929688 2.78125 18.699219 2.78125 Z M 18.699219 2.78125 " fill-opacity="1" fill-rule="evenodd"/></g></svg>